# Blender v2.93.5 OBJ File: ''
# www.blender.org
mtllib SM_HouseAddon_Window_01.mtl
o Door_01.008_Cube.022
v 0.057683 0.807469 0.518754
v 0.057683 0.936960 0.518754
v -0.069442 0.936960 0.518754
v -0.069442 0.807469 0.518754
v 0.057683 0.133160 -0.312391
v 0.057683 0.793461 -0.312391
v 0.001111 0.793461 -0.312391
v 0.001111 0.133160 -0.312391
v 0.057683 0.793460 0.304076
v 0.057683 0.133159 0.304076
v 0.001111 0.133159 0.304076
v 0.001111 0.793460 0.304076
v -0.069442 0.807470 -0.514595
v -0.069442 0.936961 -0.514595
v 0.057683 0.936961 -0.514595
v 0.057683 0.807470 -0.514595
v 0.057683 0.133160 -0.424662
v 0.057683 0.793461 -0.424662
v 0.057683 0.922951 -0.424662
v -0.069442 0.922951 -0.424662
v -0.069442 0.922951 -0.312391
v 0.057683 0.922951 -0.312391
v 0.057683 0.922951 0.304076
v -0.069442 0.922951 0.304076
v -0.069442 0.133160 -0.424662
v -0.069442 0.793461 -0.424662
v 0.057683 0.793460 0.428821
v 0.057683 0.133159 0.428821
v -0.069442 0.793460 0.428821
v -0.069442 0.133159 0.428821
v -0.069442 0.922951 0.428821
v 0.057683 0.922951 0.428821
v 0.057683 0.133160 -0.514595
v 0.057683 0.003669 -0.514595
v -0.069442 0.003669 -0.514595
v -0.069442 0.133160 -0.514595
v -0.069442 0.133159 0.518754
v -0.069442 0.003668 0.518754
v 0.057683 0.003668 0.518754
v 0.057683 0.133159 0.518754
v 0.057683 0.003668 0.428821
v -0.069442 0.003668 0.428821
v -0.069442 0.003668 0.304075
v 0.057683 0.003668 0.304075
v 0.057683 0.003669 -0.312392
v -0.069442 0.003669 -0.312392
v -0.069442 0.003669 -0.424662
v 0.057683 0.003669 -0.424662
vt 0.695312 0.566406
vt 0.695312 0.574219
vt 0.687500 0.574219
vt 0.687500 0.566406
vt 0.697266 0.500000
vt 0.697266 0.566406
vt 0.693359 0.566406
vt 0.693359 0.500000
vt 0.697266 0.566406
vt 0.697266 0.500000
vt 0.693359 0.500000
vt 0.693359 0.566406
vt 0.695312 0.566406
vt 0.695312 0.574219
vt 0.687500 0.574219
vt 0.687500 0.566406
vt 0.228516 0.125000
vt 0.228516 0.166016
vt 0.187500 0.166016
vt 0.187500 0.125000
vt 0.697266 0.500000
vt 0.697266 0.566406
vt 0.689453 0.566406
vt 0.689453 0.500000
vt 0.742188 0.574219
vt 0.742188 0.582031
vt 0.734375 0.582031
vt 0.734375 0.574219
vt 0.742188 0.574219
vt 0.742188 0.582031
vt 0.734375 0.582031
vt 0.734375 0.574219
vt 0.707031 0.582031
vt 0.707031 0.574219
vt 0.703125 0.582031
vt 0.703125 0.574219
vt 0.742188 0.582031
vt 0.695312 0.582031
vt 0.695312 0.574219
vt 0.742188 0.574219
vt 0.697266 0.500000
vt 0.697266 0.566406
vt 0.689453 0.566406
vt 0.689453 0.500000
vt 0.689453 0.566406
vt 0.689453 0.500000
vt 0.697266 0.500000
vt 0.697266 0.566406
vt 0.689453 0.566406
vt 0.689453 0.500000
vt 0.695312 0.582031
vt 0.695312 0.574219
vt 0.695312 0.574219
vt 0.695312 0.582031
vt 0.687500 0.582031
vt 0.687500 0.574219
vt 0.687500 0.582031
vt 0.687500 0.574219
vt 0.742188 0.582031
vt 0.742188 0.574219
vt 0.750000 0.574219
vt 0.750000 0.582031
vt 0.695312 0.574219
vt 0.695312 0.582031
vt 0.687500 0.582031
vt 0.687500 0.574219
vt 0.750000 0.574219
vt 0.750000 0.582031
vt 0.750000 0.574219
vt 0.750000 0.582031
vt 0.695312 0.566406
vt 0.695312 0.574219
vt 0.687500 0.574219
vt 0.687500 0.566406
vt 0.695312 0.566406
vt 0.695312 0.574219
vt 0.687500 0.574219
vt 0.687500 0.566406
vt 0.742188 0.574219
vt 0.742188 0.582031
vt 0.734375 0.582031
vt 0.734375 0.574219
vt 0.742188 0.574219
vt 0.742188 0.582031
vt 0.734375 0.582031
vt 0.734375 0.574219
vt 0.707031 0.582031
vt 0.707031 0.574219
vt 0.703125 0.582031
vt 0.703125 0.574219
vt 0.742188 0.582031
vt 0.695312 0.582031
vt 0.695312 0.574219
vt 0.742188 0.574219
vt 0.695312 0.582031
vt 0.695312 0.574219
vt 0.695312 0.574219
vt 0.695312 0.582031
vt 0.687500 0.582031
vt 0.687500 0.574219
vt 0.687500 0.582031
vt 0.687500 0.574219
vt 0.742188 0.582031
vt 0.742188 0.574219
vt 0.750000 0.574219
vt 0.750000 0.582031
vt 0.695312 0.574219
vt 0.695312 0.582031
vt 0.687500 0.582031
vt 0.687500 0.574219
vt 0.750000 0.574219
vt 0.750000 0.582031
vt 0.750000 0.574219
vt 0.750000 0.582031
vn 0.0000 0.0000 1.0000
vn 0.0000 0.0000 -1.0000
vn 1.0000 0.0000 0.0000
vn 0.0000 1.0000 0.0000
vn 0.0000 -1.0000 -0.0000
vn 0.0000 0.9881 -0.1539
vn 0.0000 -0.9881 -0.1539
vn 0.0000 -0.9881 0.1539
vn 0.0000 0.9881 0.1539
usemtl House_01_Test.016
s 1
f 1/1/1 2/2/1 3/3/1 4/4/1
f 5/5/1 6/6/1 7/7/1 8/8/1
f 9/9/2 10/10/2 11/11/2 12/12/2
f 13/13/2 14/14/2 15/15/2 16/16/2
f 8/17/3 7/18/3 12/19/3 11/20/3
f 17/21/3 18/22/3 6/23/3 5/24/3
f 19/25/4 20/26/4 21/27/4 22/28/4
f 18/29/3 19/30/3 22/31/3 6/32/3
f 6/32/3 22/31/3 23/33/3 9/34/3
f 22/28/4 21/27/4 24/35/4 23/36/4
f 6/37/5 9/38/5 12/39/5 7/40/5
f 25/41/2 26/42/2 18/43/2 17/44/2
f 10/10/3 9/9/3 27/45/3 28/46/3
f 28/47/1 27/48/1 29/49/1 30/50/1
f 23/36/4 24/35/4 31/51/4 32/52/4
f 27/53/3 32/54/3 2/55/3 1/56/3
f 9/34/3 23/33/3 32/54/3 27/53/3
f 32/52/6 31/51/6 3/57/6 2/58/6
f 18/59/7 26/60/7 13/61/7 16/62/7
f 29/63/8 27/64/8 1/65/8 4/66/8
f 20/26/9 19/25/9 15/67/9 14/68/9
f 19/30/3 18/29/3 16/69/3 15/70/3
f 33/71/2 34/72/2 35/73/2 36/74/2
f 37/75/1 38/76/1 39/77/1 40/78/1
f 41/79/5 42/80/5 43/81/5 44/82/5
f 28/83/3 41/84/3 44/85/3 10/86/3
f 10/86/3 44/85/3 45/87/3 5/88/3
f 44/82/5 43/81/5 46/89/5 45/90/5
f 10/91/4 5/92/4 8/93/4 11/94/4
f 45/90/5 46/89/5 47/95/5 48/96/5
f 17/97/3 48/98/3 34/99/3 33/100/3
f 5/88/3 45/87/3 48/98/3 17/97/3
f 48/96/5 47/95/5 35/101/5 34/102/5
f 28/103/4 30/104/4 37/105/4 40/106/4
f 25/107/4 17/108/4 33/109/4 36/110/4
f 42/80/5 41/79/5 39/111/5 38/112/5
f 41/84/3 28/83/3 40/113/3 39/114/3
