# Blender v2.93.5 OBJ File: ''
# www.blender.org
mtllib SM_HouseAddon_Chimney_03.mtl
o Door_01.023_Cube.060
v 0.227273 1.006382 0.500003
v 0.227273 1.006382 -0.499997
v 0.227273 1.506382 -0.499997
v 0.227273 1.506381 0.500003
v 0.227273 0.506381 0.500003
v 0.227273 0.506381 -0.499997
v 0.227273 0.506383 -0.999997
v 0.227273 0.506382 1.000003
v 0.227273 2.006382 0.500003
v 0.227273 2.006382 -0.499997
v 0.227273 2.506382 -0.499997
v 0.227274 2.506382 0.500003
v 0.227273 0.006382 1.000003
v 0.227273 0.006381 0.500003
v 0.227273 0.006381 -0.499997
v 0.227273 0.006383 -0.999997
v 0.227273 3.006382 -0.499997
v 0.227273 3.006382 0.500003
v 0.227273 3.506382 -0.499997
v 0.227273 3.506382 0.500003
v -0.192210 3.506382 -0.419480
v -0.192210 3.506382 0.419486
v -0.192210 3.306252 0.419486
v -0.192210 3.306252 -0.419480
v 0.146757 3.506382 0.419486
v -0.272727 3.506382 0.500003
v 0.146757 3.506382 -0.419480
v -0.272727 3.506382 -0.499997
v 0.146757 3.306252 0.419486
v 0.146757 3.306252 -0.419480
v -0.272727 0.006383 -0.999997
v -0.272727 0.506383 -0.999997
v -0.272727 1.006382 -0.499997
v -0.272727 1.506382 -0.499997
v -0.272727 2.006382 -0.499997
v -0.272727 2.506382 -0.499997
v -0.272727 3.006382 -0.499997
v -0.272727 0.006382 1.000003
v -0.272727 0.506382 1.000003
v -0.272727 1.006382 0.500003
v -0.272727 1.506381 0.500003
v -0.272727 2.006382 0.500003
v -0.272727 2.506382 0.500003
v -0.272727 3.006382 0.500003
vt 0.750000 0.503906
vt 0.812500 0.503906
vt 0.812500 0.533203
vt 0.750000 0.533203
vt 0.812500 0.281250
vt 0.875000 0.281250
vt 0.875000 0.310547
vt 0.812500 0.310547
vt 0.812500 0.468750
vt 0.843750 0.468750
vt 0.812549 0.499951
vt 0.718750 0.468750
vt 0.750000 0.468750
vt 0.749951 0.499951
vt 0.750000 0.503906
vt 0.812500 0.503906
vt 0.812500 0.533203
vt 0.750000 0.533203
vt 0.812500 0.310547
vt 0.841797 0.310547
vt 0.841797 0.339844
vt 0.812500 0.339844
vt 0.845703 0.312500
vt 0.875000 0.312500
vt 0.875000 0.341797
vt 0.845703 0.341797
vt 0.812500 0.250000
vt 0.875000 0.250000
vt 0.750000 0.503906
vt 0.812500 0.503906
vt 0.812500 0.533203
vt 0.750000 0.533203
vt 0.750000 0.503906
vt 0.812500 0.503906
vt 0.812500 0.533203
vt 0.750000 0.533203
vt 0.750049 0.531299
vt 0.812451 0.531299
vt 0.812451 0.562451
vt 0.750049 0.562451
vt 0.755859 0.560547
vt 0.806641 0.560547
vt 0.806641 0.554688
vt 0.755859 0.554688
vt 0.755859 0.566406
vt 0.755859 0.587891
vt 0.750049 0.593701
vt 0.750000 0.560547
vt 0.806641 0.566406
vt 0.812500 0.560547
vt 0.806641 0.587891
vt 0.812451 0.593701
vt 0.755859 0.566406
vt 0.806641 0.566406
vt 0.806641 0.587891
vt 0.755859 0.587891
vt 0.771484 0.560547
vt 0.792969 0.560547
vt 0.792969 0.552734
vt 0.771484 0.552734
vt 0.806641 0.560547
vt 0.755859 0.560547
vt 0.755859 0.554688
vt 0.806641 0.554688
vt 0.753906 0.560547
vt 0.775391 0.560547
vt 0.775391 0.554688
vt 0.753906 0.554688
vt 0.720703 0.281250
vt 0.748047 0.281250
vt 0.748047 0.312500
vt 0.720703 0.312500
vt 0.720703 0.281250
vt 0.748047 0.281250
vt 0.748047 0.312500
vt 0.720703 0.312500
vt 0.720703 0.281250
vt 0.748047 0.281250
vt 0.748047 0.312500
vt 0.720703 0.312500
vt 0.720703 0.281250
vt 0.748047 0.281250
vt 0.748047 0.312500
vt 0.720703 0.312500
vt 0.720703 0.281250
vt 0.748047 0.281250
vt 0.748047 0.312500
vt 0.720703 0.312500
vt 0.720703 0.281250
vt 0.748047 0.281250
vt 0.748047 0.312500
vt 0.720703 0.312500
vt 0.720703 0.250000
vt 0.748047 0.250000
vt 0.748047 0.281250
vt 0.720703 0.281250
vt 0.720703 0.281250
vt 0.748047 0.281250
vt 0.748047 0.312500
vt 0.720703 0.312500
vt 0.720703 0.281250
vt 0.748047 0.281250
vt 0.748047 0.312500
vt 0.720703 0.312500
vt 0.720703 0.281250
vt 0.748047 0.281250
vt 0.748047 0.312500
vt 0.720703 0.312500
vt 0.720703 0.281250
vt 0.748047 0.281250
vt 0.748047 0.312500
vt 0.720703 0.312500
vt 0.720703 0.281250
vt 0.748047 0.281250
vt 0.748047 0.312500
vt 0.720703 0.312500
vt 0.720703 0.281250
vt 0.748047 0.281250
vt 0.748047 0.312500
vt 0.720703 0.312500
vt 0.720703 0.250000
vt 0.748047 0.250000
vt 0.748047 0.281250
vt 0.720703 0.281250
vt 0.750000 0.503906
vt 0.750000 0.533203
vt 0.812500 0.533203
vt 0.812500 0.503906
vt 0.750000 0.503906
vt 0.750000 0.533203
vt 0.812500 0.533203
vt 0.812500 0.503906
vt 0.750000 0.503906
vt 0.750000 0.533203
vt 0.812500 0.533203
vt 0.812500 0.503906
vt 0.750000 0.503906
vt 0.750000 0.533203
vt 0.812500 0.533203
vt 0.812500 0.503906
vt 0.750049 0.531299
vt 0.750049 0.562451
vt 0.812451 0.562451
vt 0.812451 0.531299
vn 1.0000 0.0000 0.0000
vn -0.0000 1.0000 -0.0000
vn 0.0000 -0.0000 1.0000
vn -1.0000 0.0000 0.0000
vn 0.0000 0.0000 -1.0000
vn 0.0000 0.7071 -0.7071
vn 0.0000 0.7071 0.7071
usemtl House_01_Test.007
s 1
f 1/1/1 2/2/1 3/3/1 4/4/1
f 5/5/1 6/6/1 2/7/1 1/8/1
f 6/9/1 7/10/1 2/11/1
f 8/12/1 5/13/1 1/14/1
f 9/15/1 10/16/1 11/17/1 12/18/1
f 13/19/1 14/20/1 5/21/1 8/22/1
f 15/23/1 16/24/1 7/25/1 6/26/1
f 14/27/1 15/28/1 6/6/1 5/5/1
f 4/29/1 3/30/1 10/31/1 9/32/1
f 12/33/1 11/34/1 17/35/1 18/36/1
f 18/37/1 17/38/1 19/39/1 20/40/1
f 21/41/1 22/42/1 23/43/1 24/44/1
f 25/45/2 22/46/2 26/47/2 20/48/2
f 27/49/2 25/45/2 20/48/2 19/50/2
f 22/46/2 21/51/2 28/52/2 26/47/2
f 21/51/2 27/49/2 19/50/2 28/52/2
f 29/53/2 30/54/2 24/55/2 23/56/2
f 27/57/3 21/58/3 24/59/3 30/60/3
f 25/61/4 27/62/4 30/63/4 29/64/4
f 22/65/5 25/66/5 29/67/5 23/68/5
f 16/69/5 31/70/5 32/71/5 7/72/5
f 7/73/6 32/74/6 33/75/6 2/76/6
f 2/77/5 33/78/5 34/79/5 3/80/5
f 3/81/5 34/82/5 35/83/5 10/84/5
f 10/85/5 35/86/5 36/87/5 11/88/5
f 11/89/5 36/90/5 37/91/5 17/92/5
f 17/93/5 37/94/5 28/95/5 19/96/5
f 38/97/3 13/98/3 8/99/3 39/100/3
f 39/101/7 8/102/7 1/103/7 40/104/7
f 40/105/3 1/106/3 4/107/3 41/108/3
f 41/109/3 4/110/3 9/111/3 42/112/3
f 42/113/3 9/114/3 12/115/3 43/116/3
f 43/117/3 12/118/3 18/119/3 44/120/3
f 44/121/3 18/122/3 20/123/3 26/124/3
f 40/125/4 41/126/4 34/127/4 33/128/4
f 42/129/4 43/130/4 36/131/4 35/132/4
f 41/133/4 42/134/4 35/135/4 34/136/4
f 43/137/4 44/138/4 37/139/4 36/140/4
f 44/141/4 26/142/4 28/143/4 37/144/4
