# Blender v2.93.5 OBJ File: ''
# www.blender.org
mtllib SM_HouseAddon_WindowGarden_02.mtl
o Door_01.019_Cube.049
v 0.010917 0.002347 0.337471
v 0.010917 0.002347 -0.329195
v -0.155750 0.002347 -0.329195
v -0.155750 0.002347 0.337471
v 0.010917 -0.164320 0.337475
v 0.010917 -0.164320 -0.329195
v -0.155750 -0.164320 0.337475
v -0.155750 -0.164320 -0.329195
v 0.031468 -0.043474 0.256466
v 0.035068 -0.043474 0.169292
v 0.001592 0.019062 0.169292
v 0.001592 0.019062 0.256466
v 0.021884 -0.143487 0.069469
v 0.021884 -0.143487 0.006969
v 0.021884 -0.080987 0.006969
v 0.021884 -0.080987 0.069469
v 0.024611 -0.083397 0.120115
v 0.024611 -0.083397 0.036783
v 0.010917 -0.000064 0.036783
v 0.010917 -0.000064 0.120115
v 0.025540 -0.009071 -0.184109
v 0.025540 -0.009071 -0.238415
v 0.001592 0.012527 -0.238415
v 0.001592 0.012527 -0.184109
v 0.031293 -0.066785 0.002590
v 0.031293 -0.066785 -0.051716
v 0.017835 0.002347 -0.051716
v 0.017835 0.002347 0.002590
v 0.010917 -0.182439 0.256466
v 0.035068 -0.182439 0.169292
v 0.029411 -0.102324 0.207289
v 0.029411 -0.102324 0.120115
v 0.010917 0.002347 0.120115
v 0.010917 0.002347 0.207289
v 0.029411 -0.206995 0.207289
v 0.029411 -0.206995 0.120115
v -0.072417 0.028466 -0.249063
v -0.072417 0.008939 -0.329195
v -0.146425 0.008939 -0.329195
v -0.146425 0.008939 -0.249063
v 0.001592 0.008939 -0.249063
v 0.001592 0.008939 -0.329195
v 0.001592 0.008939 0.337471
v 0.001592 0.008939 0.288651
v -0.072417 0.028466 0.288651
v -0.072417 0.002347 0.337471
v -0.146425 0.008939 0.288651
v -0.146425 0.008939 0.337471
v 0.001592 0.008939 0.019794
v -0.072417 0.041778 0.019794
v -0.146425 0.008939 0.019794
v 0.053661 -0.036886 0.187952
v 0.035068 -0.036886 0.145720
v 0.035068 -0.002765 0.154539
v 0.035068 -0.003911 0.187952
v 0.035068 -0.036886 0.225416
v 0.035068 -0.003911 0.233665
v 0.035068 -0.075834 0.233665
v 0.035068 -0.075834 0.187952
v 0.035068 -0.075834 0.145720
v 0.070050 -0.155445 -0.143089
v 0.051456 -0.113263 -0.141005
v 0.051456 -0.123757 -0.107361
v 0.051456 -0.157071 -0.110155
v 0.051456 -0.192862 -0.144938
v 0.042784 -0.202730 -0.112410
v 0.051456 -0.199181 -0.184246
v 0.051456 -0.153523 -0.181990
v 0.051456 -0.111341 -0.179907
v 0.010917 -0.292640 0.120115
v 0.010917 -0.292640 0.036783
v 0.027436 -0.166730 0.036783
v 0.027436 -0.166730 0.120115
v 0.025540 -0.207459 -0.184109
v 0.025540 -0.207459 -0.238415
v 0.025540 -0.103436 -0.238415
v 0.025540 -0.103436 -0.184109
v 0.031293 -0.212348 0.002590
v 0.031293 -0.212348 -0.051716
v 0.031293 -0.143216 -0.051716
v 0.031293 -0.143216 0.002590
v 0.034383 -0.017388 -0.184834
v 0.001592 0.012527 -0.184834
v 0.001592 0.012527 -0.092237
v 0.034383 -0.017388 -0.092237
v 0.043490 -0.319589 -0.184834
v 0.043490 -0.126606 -0.184834
v 0.043490 -0.126606 -0.092237
v 0.043490 -0.319589 -0.092238
v 0.035375 -0.082579 -0.040409
v 0.035375 -0.067248 -0.101000
v 0.035375 -0.006658 -0.085669
v 0.035375 -0.021989 -0.025078
v -0.021493 0.024332 0.089254
v -0.021493 0.024332 0.026754
v -0.078330 0.050328 0.026754
v -0.078330 0.050328 0.089254
v -0.048251 0.036570 -0.208788
v -0.090066 0.055696 -0.166456
v -0.051571 0.038089 -0.120474
v -0.009755 0.018963 -0.162806
vt 0.064453 0.046875
vt 0.125000 0.046875
vt 0.125000 0.062500
vt 0.064453 0.062500
vt 0.000049 0.125049
vt 0.062500 0.125000
vt 0.062500 0.140625
vt 0.000049 0.140576
vt 0.062500 0.125000
vt 0.062500 0.140625
vt 0.078125 0.140625
vt 0.078125 0.125000
vt 0.062500 0.140625
vt 0.062500 0.125000
vt 0.078125 0.125000
vt 0.078125 0.140625
vt 0.000024 0.092749
vt 0.007812 0.092773
vt 0.007812 0.103516
vt 0.000049 0.103467
vt 0.048877 0.082080
vt 0.054639 0.082080
vt 0.054639 0.087842
vt 0.048877 0.087842
vt 0.025391 0.096354
vt 0.031234 0.096370
vt 0.031250 0.103516
vt 0.025391 0.103516
vt 0.011768 0.096338
vt 0.015625 0.096354
vt 0.015625 0.103516
vt 0.011768 0.103467
vt 0.019531 0.093750
vt 0.023438 0.093750
vt 0.023438 0.099609
vt 0.019531 0.099609
vt 0.000000 0.082031
vt 0.007812 0.082031
vt 0.000024 0.092749
vt 0.007812 0.092773
vt 0.007812 0.103516
vt 0.000049 0.103467
vt 0.000000 0.082031
vt 0.007812 0.082031
vt 0.117722 0.021484
vt 0.125000 0.021484
vt 0.125000 0.029297
vt 0.117722 0.029297
vt 0.117722 0.013672
vt 0.125000 0.013672
vt 0.064453 0.013672
vt 0.068887 0.013672
vt 0.068887 0.021484
vt 0.064453 0.021484
vt 0.068887 0.029297
vt 0.064453 0.029297
vt 0.093305 0.013672
vt 0.093305 0.021484
vt 0.093305 0.029297
vt 0.040039 0.086914
vt 0.044873 0.086914
vt 0.044873 0.091748
vt 0.040039 0.091748
vt 0.035205 0.086914
vt 0.035205 0.091748
vt 0.035205 0.082080
vt 0.040039 0.082080
vt 0.044873 0.082080
vt 0.040039 0.086914
vt 0.044873 0.086914
vt 0.044873 0.091748
vt 0.040039 0.091748
vt 0.035205 0.086914
vt 0.035205 0.091748
vt 0.035205 0.082080
vt 0.040039 0.082080
vt 0.044873 0.082080
vt 0.025391 0.082031
vt 0.031201 0.082080
vt 0.031217 0.089225
vt 0.025391 0.089193
vt 0.011768 0.082080
vt 0.015625 0.082031
vt 0.015625 0.089193
vt 0.011768 0.089209
vt 0.019531 0.082031
vt 0.023438 0.082031
vt 0.023438 0.087891
vt 0.019531 0.087891
vt 0.025391 0.096354
vt 0.025391 0.103516
vt 0.031250 0.103516
vt 0.031234 0.096370
vt 0.025391 0.082031
vt 0.025391 0.089193
vt 0.031217 0.089225
vt 0.031201 0.082080
vt 0.048877 0.082080
vt 0.054639 0.082080
vt 0.054639 0.087842
vt 0.048877 0.087842
vt 0.048877 0.082080
vt 0.054639 0.082080
vt 0.054639 0.087842
vt 0.048877 0.087842
vt 0.048877 0.082080
vt 0.054639 0.082080
vt 0.054639 0.087842
vt 0.048877 0.087842
vt 0.000000 0.140625
vt 0.062500 0.140625
vn 0.0000 1.0000 0.0000
vn 1.0000 0.0000 0.0000
vn 0.0000 0.0000 1.0000
vn 0.0000 0.0000 -1.0000
vn 0.8919 0.4518 0.0184
vn 0.9868 0.1622 0.0000
vn 0.6697 0.7426 0.0000
vn 0.9816 0.1911 0.0000
vn 0.9849 -0.0728 0.1568
vn 0.9847 0.1740 0.0000
vn -0.1298 0.9843 -0.1199
vn 0.1298 0.9843 -0.1199
vn 0.0841 0.9626 0.2575
vn -0.0841 0.9626 0.2575
vn 0.3334 0.9425 -0.0233
vn -0.3334 0.9425 -0.0233
vn -0.3334 0.9425 0.0233
vn 0.3334 0.9425 0.0233
vn 0.9311 0.2875 -0.2245
vn 0.9473 0.2406 0.2117
vn 0.9551 -0.2054 0.2135
vn 0.9511 -0.2270 -0.2094
vn 0.9311 0.2100 0.2983
vn 0.8958 -0.3097 0.3187
vn 0.9551 -0.2031 -0.2157
vn 0.9511 0.2203 -0.2164
vn 0.9915 -0.1301 -0.0000
vn 0.9994 0.0339 0.0000
vn 0.6740 0.7388 0.0000
vn 0.9965 0.0831 0.0000
vn 0.4159 0.9094 0.0000
vn 0.0000 -1.0000 -0.0000
usemtl House_01_Test.032
s 1
f 1/1/1 2/2/1 3/3/1 4/4/1
f 5/5/2 6/6/2 2/7/2 1/8/2
f 1/9/3 4/10/3 7/11/3 5/12/3
f 3/13/4 2/14/4 6/15/4 8/16/4
f 9/17/5 10/18/5 11/19/5 12/20/5
f 13/21/2 14/22/2 15/23/2 16/24/2
f 17/25/6 18/26/6 19/27/6 20/28/6
f 21/29/7 22/30/7 23/31/7 24/32/7
f 25/33/8 26/34/8 27/35/8 28/36/8
f 29/37/9 30/38/9 10/18/9 9/17/9
f 31/39/10 32/40/10 33/41/10 34/42/10
f 35/43/2 36/44/2 32/40/2 31/39/2
f 37/45/11 38/46/11 39/47/11 40/48/11
f 41/49/12 42/50/12 38/46/12 37/45/12
f 43/51/13 44/52/13 45/53/13 46/54/13
f 46/54/14 45/53/14 47/55/14 48/56/14
f 49/57/15 41/49/15 37/45/15 50/58/15
f 50/58/16 37/45/16 40/48/16 51/59/16
f 45/53/17 50/58/17 51/59/17 47/55/17
f 44/52/18 49/57/18 50/58/18 45/53/18
f 52/60/19 53/61/19 54/62/19 55/63/19
f 56/64/20 52/60/20 55/63/20 57/65/20
f 58/66/21 59/67/21 52/60/21 56/64/21
f 59/67/22 60/68/22 53/61/22 52/60/22
f 61/69/23 62/70/23 63/71/23 64/72/23
f 65/73/24 61/69/24 64/72/24 66/74/24
f 67/75/25 68/76/25 61/69/25 65/73/25
f 68/76/26 69/77/26 62/70/26 61/69/26
f 70/78/27 71/79/27 72/80/27 73/81/27
f 73/81/28 72/80/28 18/26/28 17/25/28
f 74/82/2 75/83/2 76/84/2 77/85/2
f 77/85/2 76/84/2 22/30/2 21/29/2
f 78/86/2 79/87/2 80/88/2 81/89/2
f 81/89/2 80/88/2 26/34/2 25/33/2
f 82/90/29 83/91/29 84/92/29 85/93/29
f 86/94/2 87/95/2 88/96/2 89/97/2
f 87/95/30 82/90/30 85/93/30 88/96/30
f 90/98/2 91/99/2 92/100/2 93/101/2
f 94/102/31 95/103/31 96/104/31 97/105/31
f 98/106/31 99/107/31 100/108/31 101/109/31
f 7/110/32 8/111/32 6/6/32 5/5/32
