# Blender v2.93.5 OBJ File: ''
# www.blender.org
mtllib SM_HouseAddon_Chimney_01.mtl
o Door_01.026_Cube.001
v 0.250008 0.002040 -0.000002
v 0.250008 0.002040 -0.333336
v 0.250008 0.502040 -0.333336
v 0.250008 0.502040 -0.000002
v 0.250008 1.002040 -0.333336
v 0.250008 1.002040 -0.000002
v 0.250008 1.502040 -0.333336
v 0.250008 1.502040 -0.000002
v -0.169476 1.502040 -0.000002
v -0.169476 1.502040 0.252815
v -0.169476 1.311166 0.252815
v -0.169476 1.311166 -0.000002
v 0.169491 1.502040 0.252815
v -0.249992 1.502040 0.333332
v 0.250008 1.502040 0.333332
v 0.169491 1.502040 -0.000002
v -0.169476 1.502040 -0.252819
v -0.249992 1.502040 -0.333336
v -0.249992 1.502040 -0.000002
v 0.169491 1.502040 -0.252819
v 0.169491 1.311166 -0.000002
v 0.169491 1.311166 -0.252819
v -0.169476 1.311166 -0.252819
v 0.169491 1.311166 0.252815
v -0.249992 0.002040 -0.333336
v -0.249992 0.502040 -0.333336
v -0.249992 1.002040 -0.333336
v -0.249992 0.002040 0.333332
v 0.250008 0.002040 0.333332
v 0.250008 0.502040 0.333332
v -0.249992 0.502040 0.333332
v 0.250008 1.002040 0.333332
v -0.249992 1.002040 0.333332
v -0.249992 0.002040 -0.000002
v -0.249992 0.502040 -0.000002
v -0.249992 1.002040 -0.000002
vt 0.791016 0.503906
vt 0.812500 0.503906
vt 0.812500 0.533203
vt 0.791016 0.533203
vt 0.791016 0.503906
vt 0.812500 0.503906
vt 0.812500 0.533203
vt 0.791016 0.533203
vt 0.812451 0.562451
vt 0.791016 0.562500
vt 0.789714 0.560547
vt 0.806641 0.560547
vt 0.806641 0.554688
vt 0.789714 0.554688
vt 0.755859 0.566406
vt 0.755859 0.587891
vt 0.750049 0.593701
vt 0.750000 0.560547
vt 0.771484 0.566406
vt 0.771484 0.560547
vt 0.789062 0.587891
vt 0.806641 0.587891
vt 0.812451 0.593701
vt 0.789062 0.593750
vt 0.806641 0.566406
vt 0.812500 0.560547
vt 0.789062 0.566406
vt 0.806641 0.566406
vt 0.806641 0.587891
vt 0.789062 0.587891
vt 0.771484 0.560547
vt 0.792969 0.560547
vt 0.792969 0.552734
vt 0.771484 0.552734
vt 0.772786 0.560547
vt 0.755859 0.560547
vt 0.755859 0.554688
vt 0.772786 0.554688
vt 0.753906 0.560547
vt 0.775391 0.560547
vt 0.775391 0.554688
vt 0.753906 0.554688
vt 0.720703 0.281250
vt 0.748047 0.281250
vt 0.748047 0.312500
vt 0.720703 0.312500
vt 0.720703 0.281250
vt 0.748047 0.281250
vt 0.748047 0.312500
vt 0.720703 0.312500
vt 0.720703 0.251953
vt 0.748047 0.251953
vt 0.748047 0.281250
vt 0.720703 0.281250
vt 0.720703 0.281250
vt 0.748047 0.281250
vt 0.748047 0.312500
vt 0.720703 0.312500
vt 0.720703 0.281250
vt 0.748047 0.281250
vt 0.748047 0.312500
vt 0.720703 0.312500
vt 0.720703 0.251953
vt 0.748047 0.251953
vt 0.748047 0.281250
vt 0.720703 0.281250
vt 0.791667 0.503906
vt 0.791667 0.533203
vt 0.812500 0.533203
vt 0.812500 0.503906
vt 0.791016 0.503906
vt 0.791016 0.533203
vt 0.812500 0.533203
vt 0.812500 0.503906
vt 0.791016 0.562500
vt 0.812451 0.562451
vt 0.750000 0.533203
vt 0.750049 0.562451
vt 0.771484 0.562500
vt 0.771484 0.533203
vt 0.750000 0.503906
vt 0.771484 0.503906
vt 0.750000 0.503906
vt 0.750000 0.533203
vt 0.771484 0.533203
vt 0.771484 0.503906
vt 0.806641 0.560547
vt 0.789714 0.560547
vt 0.789714 0.554688
vt 0.806641 0.554688
vt 0.755859 0.566406
vt 0.771484 0.566406
vt 0.771484 0.587891
vt 0.755859 0.587891
vt 0.771484 0.587891
vt 0.771484 0.593750
vt 0.789062 0.566406
vt 0.789062 0.560547
vt 0.755859 0.560547
vt 0.772786 0.560547
vt 0.772786 0.554688
vt 0.755859 0.554688
vt 0.750000 0.533203
vt 0.771484 0.533203
vt 0.771484 0.562500
vt 0.750049 0.562451
vt 0.750000 0.503906
vt 0.771484 0.503906
vt 0.750000 0.503906
vt 0.771484 0.503906
vt 0.771484 0.533203
vt 0.750000 0.533203
vn 1.0000 0.0000 0.0000
vn 0.0000 1.0000 0.0000
vn 0.0000 -0.0000 1.0000
vn -1.0000 0.0000 0.0000
vn 0.0000 0.0000 -1.0000
usemtl House_01_Test.007
s 1
f 1/1/1 2/2/1 3/3/1 4/4/1
f 4/5/1 3/6/1 5/7/1 6/8/1
f 6/8/1 5/7/1 7/9/1 8/10/1
f 9/11/1 10/12/1 11/13/1 12/14/1
f 13/15/2 10/16/2 14/17/2 15/18/2
f 16/19/2 13/15/2 15/18/2 8/20/2
f 9/21/2 17/22/2 18/23/2 19/24/2
f 17/22/2 20/25/2 7/26/2 18/23/2
f 21/27/2 22/28/2 23/29/2 12/30/2
f 20/31/3 17/32/3 23/33/3 22/34/3
f 16/35/4 20/36/4 22/37/4 21/38/4
f 10/39/5 13/40/5 24/41/5 11/42/5
f 2/43/5 25/44/5 26/45/5 3/46/5
f 3/47/5 26/48/5 27/49/5 5/50/5
f 5/51/5 27/52/5 18/53/5 7/54/5
f 28/55/3 29/56/3 30/57/3 31/58/3
f 31/59/3 30/60/3 32/61/3 33/62/3
f 33/63/3 32/64/3 15/65/3 14/66/3
f 34/67/4 35/68/4 26/69/4 25/70/4
f 35/71/4 36/72/4 27/73/4 26/74/4
f 36/72/4 19/75/4 18/76/4 27/73/4
f 33/77/4 14/78/4 19/79/4 36/80/4
f 31/81/4 33/77/4 36/80/4 35/82/4
f 28/83/4 31/84/4 35/85/4 34/86/4
f 13/87/4 16/88/4 21/89/4 24/90/4
f 24/91/2 21/92/2 12/93/2 11/94/2
f 10/16/2 9/95/2 19/96/2 14/17/2
f 20/25/2 16/97/2 8/98/2 7/26/2
f 17/99/1 9/100/1 12/101/1 23/102/1
f 32/103/1 6/104/1 8/105/1 15/106/1
f 30/107/1 4/108/1 6/104/1 32/103/1
f 29/109/1 1/110/1 4/111/1 30/112/1
