# Blender v2.93.5 OBJ File: ''
# www.blender.org
mtllib SM_Stairs_Rail_02.mtl
o Cube.021
v -0.249941 0.000000 0.000000
v -0.249941 0.250000 0.000000
v -0.249941 0.754158 -1.000000
v -0.249941 0.504158 -1.000000
v -0.249941 1.250000 -2.000000
v -0.249941 1.000000 -2.000000
v 0.000000 0.754158 -1.000000
v 0.000000 1.250000 -2.000000
v 0.000000 0.504158 -1.000000
v 0.000000 1.000000 -2.000000
v 0.000000 0.000000 0.000000
v 0.000000 0.250000 0.000000
v -0.250000 0.250000 0.250000
v 0.000000 0.250000 0.250000
v 0.000000 -0.000000 0.250000
v -0.250000 -0.000000 0.250000
vt 0.437451 0.421924
vt 0.437451 0.437451
vt 0.375049 0.437451
vt 0.375049 0.421924
vt 0.437451 0.421924
vt 0.437451 0.437451
vt 0.375049 0.437451
vt 0.375049 0.421924
vt 0.312451 0.359424
vt 0.250049 0.359424
vt 0.250049 0.374951
vt 0.312451 0.374951
vt 0.437451 0.421924
vt 0.375049 0.421924
vt 0.375049 0.437451
vt 0.437451 0.437451
vt 0.437451 0.421924
vt 0.375049 0.421924
vt 0.375049 0.437451
vt 0.437451 0.437451
vt 0.312451 0.359424
vt 0.250049 0.359424
vt 0.250049 0.374951
vt 0.312451 0.374951
vt 0.234326 0.406201
vt 0.234326 0.390674
vt 0.218799 0.390674
vt 0.218799 0.406201
vt 0.421924 0.421924
vt 0.421924 0.437451
vt 0.421924 0.421924
vt 0.437451 0.421924
vt 0.437451 0.437451
vt 0.421924 0.437451
vt 0.531299 0.359424
vt 0.546826 0.359424
vt 0.546826 0.374951
vt 0.531299 0.374951
vn -1.0000 0.0000 -0.0001
vn -0.7631 0.6288 0.1494
vn -0.7064 0.6331 0.3165
vn -1.0000 0.0000 0.0000
vn -0.5773 0.7316 0.3627
vn 0.7064 0.6331 0.3165
vn 0.5773 0.7316 0.3627
vn 1.0000 0.0000 0.0000
vn 0.7631 0.6287 0.1495
vn -0.5774 0.5773 0.5773
vn 0.5773 0.5773 0.5773
vn 0.7071 0.0000 0.7071
vn -0.7072 0.0000 0.7070
usemtl Sprytile_Set_Town_01.020
s 1
f 1/1/1 2/2/2 3/3/3 4/4/4
f 4/5/4 3/6/3 5/7/5 6/8/4
f 7/9/6 8/10/7 5/11/5 3/12/3
f 9/13/8 10/14/8 8/15/7 7/16/6
f 11/17/8 9/18/8 7/19/6 12/20/9
f 12/21/9 7/22/6 3/23/3 2/24/2
f 13/25/10 14/26/11 12/27/9 2/28/2
f 15/29/12 11/17/8 12/20/9 14/30/11
f 1/31/1 16/32/13 13/33/10 2/34/2
f 16/35/13 15/36/12 14/37/11 13/38/10
