# Blender v2.93.5 OBJ File: ''
# www.blender.org
mtllib SM_Stairs_Rail_01.mtl
o Cube.020
v -0.249941 0.000000 0.000000
v -0.249941 0.250000 0.000000
v -0.249941 0.754158 -1.000000
v -0.249941 0.504158 -1.000000
v -0.249941 1.250000 -2.000000
v -0.249941 1.000000 -2.000000
v 0.000000 0.754158 -1.000000
v 0.000000 1.250000 -2.000000
v 0.000000 0.504158 -1.000000
v 0.000000 1.000000 -2.000000
v 0.000000 0.000000 0.000000
v 0.000000 0.250000 0.000000
vt 0.437451 0.421924
vt 0.437451 0.437451
vt 0.375049 0.437451
vt 0.375049 0.421924
vt 0.437451 0.421924
vt 0.437451 0.437451
vt 0.375049 0.437451
vt 0.375049 0.421924
vt 0.312451 0.359424
vt 0.250049 0.359424
vt 0.250049 0.374951
vt 0.312451 0.374951
vt 0.437451 0.421924
vt 0.375049 0.421924
vt 0.375049 0.437451
vt 0.437451 0.437451
vt 0.437451 0.421924
vt 0.375049 0.421924
vt 0.375049 0.437451
vt 0.437451 0.437451
vt 0.312451 0.359424
vt 0.250049 0.359424
vt 0.250049 0.374951
vt 0.312451 0.374951
vn -1.0000 0.0000 0.0000
vn -0.7920 0.5451 0.2748
vn -0.7064 0.6331 0.3165
vn -0.5773 0.7316 0.3627
vn 0.7064 0.6331 0.3165
vn 0.5773 0.7316 0.3627
vn 1.0000 0.0000 0.0000
vn 0.7920 0.5451 0.2748
usemtl Sprytile_Set_Town_01.019
s 1
f 1/1/1 2/2/2 3/3/3 4/4/1
f 4/5/1 3/6/3 5/7/4 6/8/1
f 7/9/5 8/10/6 5/11/4 3/12/3
f 9/13/7 10/14/7 8/15/6 7/16/5
f 11/17/7 9/18/7 7/19/5 12/20/8
f 12/21/8 7/22/5 3/23/3 2/24/2
