# Blender v2.93.5 OBJ File: ''
# www.blender.org
mtllib SM_Garden_Grass_01.mtl
o Door_01.030_Cube.086
v -0.039477 0.001365 0.253593
v -0.039477 0.001365 0.159843
v -0.039477 0.313865 0.159843
v -0.039477 0.313865 0.253593
v -0.112181 0.001365 -0.133368
v -0.112182 0.001365 -0.227118
v -0.112182 0.313865 -0.227118
v -0.112181 0.313865 -0.133368
v 0.043034 0.001365 0.127907
v 0.043035 0.001365 -0.090843
v 0.043035 0.282615 -0.090843
v 0.043034 0.282615 0.127907
v 0.113131 0.001365 0.185451
v 0.113132 0.001365 0.336636
v 0.113132 0.220115 0.336636
v 0.113131 0.220115 0.185452
v -0.253600 0.001365 -0.039488
v -0.159849 0.001365 -0.039488
v -0.159849 0.313865 -0.039488
v -0.253600 0.313865 -0.039488
v -0.165265 0.001365 0.077122
v -0.165265 0.001365 -0.016628
v -0.165265 0.373401 -0.016628
v -0.165265 0.373401 0.077122
v -0.027400 0.001365 -0.308311
v -0.027399 0.001365 -0.091326
v -0.027399 0.282615 -0.091326
v -0.027400 0.282615 -0.308311
v 0.133362 0.001365 -0.112192
v 0.227113 0.001365 -0.112192
v 0.227113 0.313865 -0.112192
v 0.133362 0.313865 -0.112192
v 0.188179 0.001365 -0.089621
v 0.188178 0.001365 -0.183371
v 0.188178 0.313865 -0.183371
v 0.188179 0.313865 -0.089621
v -0.127912 0.001365 0.043024
v 0.090838 0.001365 0.043024
v 0.090838 0.282615 0.043024
v -0.127912 0.282615 0.043024
v -0.185458 0.001365 0.113121
v -0.336641 0.001365 0.113121
v -0.336641 0.220115 0.113121
v -0.185458 0.220115 0.113121
v -0.077127 0.001365 -0.165276
v 0.016623 0.001365 -0.165276
v 0.016623 0.373401 -0.165276
v -0.077127 0.373401 -0.165276
v 0.308307 0.001365 -0.027411
v 0.091320 0.001365 -0.027411
v 0.091320 0.282615 -0.027410
v 0.308307 0.282615 -0.027410
v 0.089614 0.001365 0.188168
v 0.183365 0.001365 0.188168
v 0.183365 0.313865 0.188168
v 0.089614 0.313865 0.188168
vt 0.992236 0.062549
vt 0.997998 0.062549
vt 0.997998 0.081982
vt 0.992236 0.081982
vt 0.992236 0.062549
vt 0.997998 0.062549
vt 0.997998 0.081982
vt 0.992236 0.081982
vt 0.941455 0.062549
vt 0.955029 0.062549
vt 0.955029 0.080029
vt 0.941455 0.080029
vt 0.974658 0.062549
vt 0.984326 0.062549
vt 0.984326 0.076123
vt 0.974658 0.076123
vt 0.992236 0.062549
vt 0.997998 0.062549
vt 0.997998 0.081982
vt 0.992236 0.081982
vt 0.992236 0.062549
vt 0.997998 0.062549
vt 0.997998 0.081982
vt 0.992236 0.081982
vt 0.941455 0.062549
vt 0.955029 0.062549
vt 0.955029 0.080029
vt 0.941455 0.080029
vt 0.992236 0.062549
vt 0.997998 0.062549
vt 0.997998 0.081982
vt 0.992236 0.081982
vt 0.992236 0.062549
vt 0.997998 0.062549
vt 0.997998 0.081982
vt 0.992236 0.081982
vt 0.941455 0.062549
vt 0.955029 0.062549
vt 0.955029 0.080029
vt 0.941455 0.080029
vt 0.974658 0.062549
vt 0.984326 0.062549
vt 0.984326 0.076123
vt 0.974658 0.076123
vt 0.992236 0.062549
vt 0.997998 0.062549
vt 0.997998 0.081982
vt 0.992236 0.081982
vt 0.941455 0.062549
vt 0.955029 0.062549
vt 0.955029 0.080029
vt 0.941455 0.080029
vt 0.992236 0.062549
vt 0.997998 0.062549
vt 0.997998 0.081982
vt 0.992236 0.081982
vn 1.0000 0.0000 0.0000
vn -1.0000 0.0000 0.0000
vn 0.0000 -0.0000 1.0000
vn 0.0000 0.0000 -1.0000
usemtl House_01_Test.001
s 1
f 1/1/1 2/2/1 3/3/1 4/4/1
f 5/5/1 6/6/1 7/7/1 8/8/1
f 9/9/1 10/10/1 11/11/1 12/12/1
f 13/13/2 14/14/2 15/15/2 16/16/2
f 17/17/3 18/18/3 19/19/3 20/20/3
f 21/21/1 22/22/1 23/23/1 24/24/1
f 25/25/2 26/26/2 27/27/2 28/28/2
f 29/29/3 30/30/3 31/31/3 32/32/3
f 33/33/1 34/34/1 35/35/1 36/36/1
f 37/37/3 38/38/3 39/39/3 40/40/3
f 41/41/4 42/42/4 43/43/4 44/44/4
f 45/45/3 46/46/3 47/47/3 48/48/3
f 49/49/4 50/50/4 51/51/4 52/52/4
f 53/53/3 54/54/3 55/55/3 56/56/3
