# Blender v2.93.5 OBJ File: ''
# www.blender.org
mtllib SM_Garden_Grass_02.mtl
o Door_01.027_Cube.083
v 0.109833 0.002621 -0.120056
v 0.109832 0.002621 -0.151306
v 0.109832 0.533872 -0.151306
v 0.109833 0.533872 -0.120056
v -0.061597 0.000822 0.009090
v -0.061598 0.000822 -0.022158
v -0.061598 0.532072 -0.022158
v -0.061597 0.532072 0.009090
v 0.013493 0.016120 0.075180
v 0.013494 0.016120 0.043932
v 0.013494 0.547370 0.043932
v 0.013493 0.547370 0.075180
v 0.006833 0.012079 -0.060444
v 0.006833 0.012079 -0.091692
v 0.006833 0.199579 -0.091692
v 0.006833 0.199579 -0.060444
v -0.097293 0.000822 0.188307
v -0.097293 0.000822 0.094559
v -0.097293 0.500822 0.094559
v -0.097293 0.500822 0.188307
v 0.112774 0.000822 0.049385
v 0.112775 0.000822 -0.044365
v 0.112775 0.500822 -0.044365
v 0.112774 0.500822 0.049385
v -0.051418 0.000822 0.220846
v -0.051417 0.000822 0.189598
v -0.051417 0.219572 0.189598
v -0.051418 0.219572 0.220846
v 0.035928 0.002621 -0.184805
v 0.035929 0.002621 -0.216053
v 0.035929 0.221371 -0.216053
v 0.035928 0.221371 -0.184805
v 0.079992 0.000822 0.137520
v 0.079991 0.000822 0.075020
v 0.079991 0.188322 0.075020
v 0.079992 0.188322 0.137520
v -0.148515 0.000822 -0.049439
v -0.148514 0.000822 -0.143189
v -0.148514 0.219572 -0.143188
v -0.148515 0.219572 -0.049438
v 0.120048 0.002621 0.109821
v 0.151299 0.002621 0.109821
v 0.151299 0.533872 0.109821
v 0.120048 0.533872 0.109821
v -0.009099 0.000822 -0.061609
v 0.022149 0.000822 -0.061609
v 0.022149 0.532072 -0.061609
v -0.009099 0.532072 -0.061609
v -0.075189 0.016120 0.013481
v -0.043939 0.016120 0.013483
v -0.043939 0.547370 0.013483
v -0.075189 0.547370 0.013481
v 0.060435 0.012079 0.006821
v 0.091685 0.012079 0.006823
v 0.091685 0.199579 0.006823
v 0.060435 0.199579 0.006821
v -0.188315 0.000822 -0.097303
v -0.094566 0.000822 -0.097303
v -0.094566 0.500822 -0.097303
v -0.188315 0.500822 -0.097303
v -0.049393 0.000822 0.112762
v 0.044357 0.000822 0.112764
v 0.044357 0.500822 0.112764
v -0.049393 0.500822 0.112763
v -0.220855 0.000822 -0.051430
v -0.189605 0.000822 -0.051428
v -0.189605 0.219572 -0.051428
v -0.220855 0.219572 -0.051430
v 0.184796 0.002621 0.035917
v 0.216046 0.002621 0.035917
v 0.216046 0.221371 0.035917
v 0.184796 0.221371 0.035917
v -0.137528 0.000822 0.079981
v -0.075028 0.000822 0.079981
v -0.075028 0.188322 0.079981
v -0.137528 0.188322 0.079981
v 0.049431 0.000822 -0.148527
v 0.143181 0.000822 -0.148525
v 0.143181 0.219572 -0.148525
v 0.049431 0.219572 -0.148527
vt 0.847705 0.062549
vt 0.849561 0.062549
vt 0.849561 0.095654
vt 0.847705 0.095654
vt 0.847705 0.062549
vt 0.849561 0.062549
vt 0.849561 0.095654
vt 0.847705 0.095654
vt 0.847705 0.062549
vt 0.849561 0.062549
vt 0.849561 0.095654
vt 0.847705 0.095654
vt 0.847705 0.068408
vt 0.849561 0.068408
vt 0.849561 0.080029
vt 0.847705 0.080029
vt 0.814502 0.062549
vt 0.820264 0.062549
vt 0.820264 0.093701
vt 0.814502 0.093701
vt 0.814502 0.062549
vt 0.820264 0.062549
vt 0.820264 0.093701
vt 0.814502 0.093701
vt 0.863330 0.066455
vt 0.865186 0.066455
vt 0.865186 0.080029
vt 0.863330 0.080029
vt 0.863330 0.066455
vt 0.865185 0.066455
vt 0.865185 0.080029
vt 0.863330 0.080029
vt 0.826221 0.064502
vt 0.830029 0.064502
vt 0.830029 0.076123
vt 0.826221 0.076123
vt 0.814502 0.066455
vt 0.820264 0.066455
vt 0.820264 0.080029
vt 0.814502 0.080029
vt 0.847705 0.062549
vt 0.849561 0.062549
vt 0.849561 0.095654
vt 0.847705 0.095654
vt 0.847705 0.062549
vt 0.849561 0.062549
vt 0.849561 0.095654
vt 0.847705 0.095654
vt 0.847705 0.062549
vt 0.849561 0.062549
vt 0.849561 0.095654
vt 0.847705 0.095654
vt 0.847705 0.068408
vt 0.849561 0.068408
vt 0.849561 0.080029
vt 0.847705 0.080029
vt 0.814502 0.062549
vt 0.820264 0.062549
vt 0.820264 0.093701
vt 0.814502 0.093701
vt 0.814502 0.062549
vt 0.820264 0.062549
vt 0.820264 0.093701
vt 0.814502 0.093701
vt 0.863330 0.066455
vt 0.865186 0.066455
vt 0.865186 0.080029
vt 0.863330 0.080029
vt 0.863330 0.066455
vt 0.865185 0.066455
vt 0.865185 0.080029
vt 0.863330 0.080029
vt 0.826221 0.064502
vt 0.830029 0.064502
vt 0.830029 0.076123
vt 0.826221 0.076123
vt 0.814502 0.066455
vt 0.820264 0.066455
vt 0.820264 0.080029
vt 0.814502 0.080029
vn 1.0000 0.0000 -0.0000
vn 0.0000 -0.0000 1.0000
vn -0.0001 -0.0000 1.0000
usemtl House_01_Test.002
s 1
f 1/1/1 2/2/1 3/3/1 4/4/1
f 5/5/1 6/6/1 7/7/1 8/8/1
f 9/9/1 10/10/1 11/11/1 12/12/1
f 13/13/1 14/14/1 15/15/1 16/16/1
f 17/17/1 18/18/1 19/19/1 20/20/1
f 21/21/1 22/22/1 23/23/1 24/24/1
f 25/25/1 26/26/1 27/27/1 28/28/1
f 29/29/1 30/30/1 31/31/1 32/32/1
f 33/33/1 34/34/1 35/35/1 36/36/1
f 37/37/1 38/38/1 39/39/1 40/40/1
f 41/41/2 42/42/2 43/43/2 44/44/2
f 45/45/2 46/46/2 47/47/2 48/48/2
f 49/49/3 50/50/3 51/51/3 52/52/3
f 53/53/3 54/54/3 55/55/3 56/56/3
f 57/57/2 58/58/2 59/59/2 60/60/2
f 61/61/2 62/62/2 63/63/2 64/64/2
f 65/65/3 66/66/3 67/67/3 68/68/3
f 69/69/2 70/70/2 71/71/2 72/72/2
f 73/73/2 74/74/2 75/75/2 76/76/2
f 77/77/2 78/78/2 79/79/2 80/80/2
