# Blender v2.93.5 OBJ File: ''
# www.blender.org
mtllib SM_Garden_Grass_03.mtl
o Door_01.028_Cube.084
v -0.020787 0.001595 -0.090492
v -0.020786 0.001595 -0.121742
v -0.020786 0.532845 -0.121742
v -0.020787 0.532845 -0.090492
v -0.020788 0.001595 0.103344
v -0.020787 0.001595 0.072094
v -0.020787 0.407845 0.072094
v -0.020788 0.407845 0.103344
v -0.020786 0.001595 -0.024904
v -0.020787 0.001595 -0.056154
v -0.020787 0.407845 -0.056154
v -0.020786 0.407845 -0.024904
v 0.079027 0.001595 0.043774
v 0.079028 0.001595 0.012524
v 0.079028 0.189095 0.012524
v 0.079027 0.189095 0.043774
v -0.020787 0.001595 -0.140308
v -0.020787 0.001595 -0.171557
v -0.020787 0.189095 -0.171556
v -0.020787 0.189095 -0.140308
v 0.004112 0.001595 0.202349
v 0.004113 0.001595 0.171099
v 0.004113 0.189095 0.171099
v 0.004112 0.189095 0.202349
v 0.090495 0.001595 -0.020781
v 0.121744 0.001595 -0.020781
v 0.121744 0.532845 -0.020781
v 0.090495 0.532845 -0.020781
v -0.103341 0.001595 -0.020781
v -0.072092 0.001595 -0.020781
v -0.072092 0.407845 -0.020781
v -0.103341 0.407845 -0.020781
v 0.024906 0.001595 -0.020779
v 0.056157 0.001595 -0.020781
v 0.056157 0.407845 -0.020781
v 0.024906 0.407845 -0.020779
v -0.043770 0.001595 0.079035
v -0.012521 0.001595 0.079035
v -0.012521 0.189095 0.079035
v -0.043770 0.189095 0.079035
v 0.140310 0.001595 -0.020781
v 0.171560 0.001595 -0.020781
v 0.171560 0.189095 -0.020781
v 0.140310 0.189095 -0.020781
v -0.202346 0.001595 0.004120
v -0.171097 0.001595 0.004120
v -0.171097 0.189095 0.004120
v -0.202346 0.189095 0.004120
vt 0.847705 0.062549
vt 0.849561 0.062549
vt 0.849561 0.095654
vt 0.847705 0.095654
vt 0.863330 0.062549
vt 0.865186 0.062549
vt 0.865186 0.087842
vt 0.863330 0.087842
vt 0.863330 0.062549
vt 0.865186 0.062549
vt 0.865186 0.087842
vt 0.863330 0.087842
vt 0.847705 0.068408
vt 0.849561 0.068408
vt 0.849561 0.080029
vt 0.847705 0.080029
vt 0.847705 0.068408
vt 0.849561 0.068408
vt 0.849561 0.080029
vt 0.847705 0.080029
vt 0.847705 0.068408
vt 0.849561 0.068408
vt 0.849561 0.080029
vt 0.847705 0.080029
vt 0.847705 0.062549
vt 0.849561 0.062549
vt 0.849561 0.095654
vt 0.847705 0.095654
vt 0.863330 0.062549
vt 0.865186 0.062549
vt 0.865186 0.087842
vt 0.863330 0.087842
vt 0.863330 0.062549
vt 0.865186 0.062549
vt 0.865186 0.087842
vt 0.863330 0.087842
vt 0.847705 0.068408
vt 0.849561 0.068408
vt 0.849561 0.080029
vt 0.847705 0.080029
vt 0.847705 0.068408
vt 0.849561 0.068408
vt 0.849561 0.080029
vt 0.847705 0.080029
vt 0.847705 0.068408
vt 0.849561 0.068408
vt 0.849561 0.080029
vt 0.847705 0.080029
vn 1.0000 0.0000 0.0000
vn 0.0000 -0.0000 1.0000
vn 0.0001 -0.0000 1.0000
usemtl House_01_Test.003
s 1
f 1/1/1 2/2/1 3/3/1 4/4/1
f 5/5/1 6/6/1 7/7/1 8/8/1
f 9/9/1 10/10/1 11/11/1 12/12/1
f 13/13/1 14/14/1 15/15/1 16/16/1
f 17/17/1 18/18/1 19/19/1 20/20/1
f 21/21/1 22/22/1 23/23/1 24/24/1
f 25/25/2 26/26/2 27/27/2 28/28/2
f 29/29/2 30/30/2 31/31/2 32/32/2
f 33/33/3 34/34/3 35/35/3 36/36/3
f 37/37/2 38/38/2 39/39/2 40/40/2
f 41/41/2 42/42/2 43/43/2 44/44/2
f 45/45/2 46/46/2 47/47/2 48/48/2
