# Blender v2.93.5 OBJ File: ''
# www.blender.org
mtllib SM_Garden_Bush_01.mtl
o Door_01.021_Cube.082
v 0.005743 0.000230 0.078331
v 0.005742 0.000230 -0.077919
v 0.005742 0.593980 -0.077919
v 0.005743 0.593980 0.078331
v 0.131109 0.009683 0.008892
v 0.010605 0.026826 -0.199419
v -0.019388 0.263370 -0.162601
v 0.101116 0.246228 0.045708
v -0.163829 0.036190 -0.045712
v 0.010294 0.037803 -0.230253
v 0.071079 0.276862 -0.170811
v -0.103044 0.275250 0.013731
v -0.142933 0.377193 0.103642
v 0.114886 0.371913 0.199945
v 0.158720 0.642661 0.097441
v -0.099099 0.647941 0.001137
v 0.207235 0.305673 0.034607
v -0.029383 0.289323 -0.255857
v -0.116691 0.650463 -0.205063
v 0.119927 0.666813 0.085402
v 0.153249 0.042449 0.005899
v -0.087850 0.027187 0.297264
v -0.150376 0.395511 0.264818
v 0.090723 0.410774 -0.026546
v -0.050895 0.000350 -0.009337
v 0.105355 0.000406 -0.008976
v 0.105100 0.593860 0.009745
v -0.051150 0.593805 0.009386
v -0.146817 0.191447 -0.035440
v -0.145988 0.274939 0.185446
v -0.047051 0.490780 0.103489
v -0.047880 0.407287 -0.117397
vt 0.761768 0.000049
vt 0.771436 0.000049
vt 0.771436 0.037061
vt 0.761768 0.037061
vt 0.789111 0.002002
vt 0.812451 0.002002
vt 0.812451 0.025342
vt 0.789111 0.025342
vt 0.789111 0.002002
vt 0.812451 0.002002
vt 0.812451 0.025342
vt 0.789111 0.025342
vt 0.789111 0.002002
vt 0.812451 0.002002
vt 0.812451 0.025342
vt 0.789111 0.025342
vt 0.789111 0.002002
vt 0.812451 0.002002
vt 0.812451 0.025342
vt 0.789111 0.025342
vt 0.789111 0.002002
vt 0.812451 0.002002
vt 0.812451 0.025342
vt 0.789111 0.025342
vt 0.761768 0.000049
vt 0.771436 0.000049
vt 0.771436 0.037061
vt 0.761768 0.037061
vt 0.789111 0.002002
vt 0.812451 0.002002
vt 0.812451 0.025342
vt 0.789111 0.025342
vn 1.0000 0.0000 -0.0000
vn 0.8574 0.1836 -0.4809
vn 0.6868 -0.3350 0.6451
vn -0.3168 0.3803 0.8689
vn 0.7400 0.2658 -0.6178
vn -0.7526 -0.1835 -0.6324
vn -0.0023 -0.0315 0.9995
vn -0.9192 0.3696 -0.1362
usemtl House_01_Test
s 1
f 1/1/1 2/2/1 3/3/1 4/4/1
f 5/5/2 6/6/2 7/7/2 8/8/2
f 9/9/3 10/10/3 11/11/3 12/12/3
f 13/13/4 14/14/4 15/15/4 16/16/4
f 17/17/5 18/18/5 19/19/5 20/20/5
f 21/21/6 22/22/6 23/23/6 24/24/6
f 25/25/7 26/26/7 27/27/7 28/28/7
f 29/29/8 30/30/8 31/31/8 32/32/8
