# Blender v2.93.5 OBJ File: ''
# www.blender.org
mtllib SM_Garden_Bush_02.mtl
o Cube.001
v 0.000000 0.000000 0.496314
v 0.000000 0.000000 -0.003686
v 0.000000 0.500000 -0.003686
v 0.000000 0.500000 0.496314
v 0.000000 0.000000 -0.503686
v 0.000000 0.500000 -0.503686
v 0.000000 0.750000 -0.003686
v 0.000000 0.750000 0.496314
v 0.000000 0.750000 -0.503686
vt 0.875049 0.000049
vt 0.906201 0.000049
vt 0.906201 0.031201
vt 0.875049 0.031201
vt 0.906299 0.000049
vt 0.937451 0.000049
vt 0.937451 0.031201
vt 0.906299 0.031201
vt 0.875049 0.031299
vt 0.906201 0.031299
vt 0.906201 0.046826
vt 0.875049 0.046826
vt 0.906299 0.031299
vt 0.937451 0.031299
vt 0.937451 0.046826
vt 0.906299 0.046826
vn 1.0000 0.0000 0.0000
usemtl Sprytile_Set_Town_01
s 1
f 1/1/1 2/2/1 3/3/1 4/4/1
f 2/5/1 5/6/1 6/7/1 3/8/1
f 4/9/1 3/10/1 7/11/1 8/12/1
f 3/13/1 6/14/1 9/15/1 7/16/1
