# Blender v2.93.5 OBJ File: ''
# www.blender.org
mtllib SM_Garden_Grass_06.mtl
o Cube.005
v 0.000000 0.000000 0.003264
v 0.000000 0.000000 -0.496736
v 0.000000 0.500000 -0.496736
v 0.000000 0.500000 0.003264
v 0.000000 0.000000 0.503264
v 0.000000 0.500000 0.503264
vt 0.968799 0.062549
vt 0.999951 0.062549
vt 0.999951 0.093701
vt 0.968799 0.093701
vt 0.937549 0.062549
vt 0.968701 0.062549
vt 0.968701 0.093701
vt 0.937549 0.093701
vn 1.0000 0.0000 0.0000
usemtl Sprytile_Set_Town_01.004
s 1
f 1/1/1 2/2/1 3/3/1 4/4/1
f 5/5/1 1/6/1 4/7/1 6/8/1
