# Blender v2.93.5 OBJ File: ''
# www.blender.org
mtllib SM_Market_01.mtl
o Cube.023_Cube
v 0.588801 0.002303 0.001277
v 0.588801 0.002303 -0.880261
v 0.588801 0.502303 -0.880263
v 0.588801 0.502303 0.001278
v 0.588801 0.002303 1.001278
v 0.588801 0.002303 0.872565
v 0.588801 0.502303 0.871653
v 0.588801 0.502303 1.001276
v 0.588801 0.002303 -0.998724
v 0.493960 0.002303 -0.998724
v 0.497404 0.502303 -0.998724
v 0.588801 0.502303 -0.998724
v -0.411199 0.002303 1.001278
v -0.318610 0.002303 1.001278
v -0.317624 0.502303 1.001276
v -0.411199 0.502303 1.001276
v 0.588801 1.002303 1.001276
v 0.588801 1.002303 0.869843
v 0.588801 1.252303 0.872104
v 0.588801 1.252303 1.001278
v 0.588801 1.002303 0.001278
v 0.588801 1.002303 -0.880266
v 0.588801 1.252303 -0.880270
v 0.588801 1.252303 0.001278
v -0.411199 1.215068 1.001276
v -0.317624 1.185246 1.001276
v -0.317624 1.435644 1.001278
v -0.411199 1.456167 1.001278
v 0.588801 1.002303 -0.998722
v 0.502777 1.019840 -0.998722
v 0.503794 1.269633 -0.998722
v 0.588801 1.252303 -0.998722
v 0.496499 1.271120 0.872879
v 0.495999 1.271222 1.001278
v 0.503335 1.269727 -0.880974
v 0.499897 1.270427 0.001278
v -0.411199 1.002303 1.001276
v -0.317624 0.988152 1.001276
v 0.498907 0.501715 0.001278
v 0.498065 0.502044 1.001276
v -0.411199 1.215068 0.001278
v -0.411199 1.456167 0.001278
v -0.411199 1.456167 -0.888539
v -0.411199 1.215068 -0.887530
v -0.411199 1.456167 0.880495
v -0.411199 1.215068 0.881408
v -0.411199 1.002303 0.882213
v -0.411199 0.502303 0.884102
v -0.411199 0.002303 0.885989
v -0.411199 0.502303 0.001278
v -0.411199 1.002303 0.001278
v -0.411199 1.002303 -0.886638
v -0.411199 0.502303 -0.884540
v -0.411199 0.002303 0.001277
v -0.411199 0.002303 -0.882443
v -0.317624 1.435644 0.880495
v -0.317624 1.435645 0.001278
v -0.305875 1.434695 -0.887668
v 0.495870 1.021248 1.001276
v -0.308578 1.185246 -0.998722
v -0.308578 1.435645 -0.998722
v -0.411199 0.502303 -0.998724
v -0.411199 0.002303 -0.998724
v 0.084928 0.002303 -0.998724
v 0.088801 0.502303 -0.998722
v 0.495451 0.002303 1.001278
v -0.317624 0.988152 -0.998722
v -0.317624 0.502303 -0.998724
v -0.411199 1.002303 -0.998722
v -0.324104 0.002303 -0.998724
v -0.411199 1.215068 -0.998722
v -0.411199 1.456167 -0.998722
v 0.088421 0.002303 1.001278
v 0.088801 0.502303 1.001278
v 0.088801 0.502303 0.001278
v -0.317624 1.185246 0.001278
v -0.317624 1.185246 -0.887530
v -0.317624 1.185246 0.881408
v -0.317624 0.502303 0.884102
v -0.317624 0.988152 0.882213
v -0.317624 0.002303 0.885989
v -0.317624 0.502303 0.001278
v -0.317624 0.502303 -0.884540
v -0.317624 0.988152 -0.886638
v -0.317624 0.988152 0.001278
v -0.317624 0.002303 0.001277
v -0.317624 0.002303 -0.882443
vt 0.812500 0.812500
vt 0.867188 0.812500
vt 0.867188 0.843750
vt 0.812500 0.843750
vt 0.750000 0.812500
vt 0.757812 0.812500
vt 0.757812 0.843750
vt 0.750000 0.843750
vt 0.875000 0.812500
vt 0.880859 0.812500
vt 0.880859 0.843750
vt 0.875000 0.843750
vt 0.875000 0.812500
vt 0.880859 0.812500
vt 0.880859 0.843750
vt 0.875000 0.843750
vt 0.750000 0.894531
vt 0.757812 0.894531
vt 0.757812 0.906250
vt 0.750000 0.906250
vt 0.812500 0.894531
vt 0.867188 0.894531
vt 0.867188 0.906250
vt 0.812500 0.906250
vt 0.875000 0.894531
vt 0.880859 0.894531
vt 0.880859 0.906250
vt 0.875000 0.906250
vt 0.875000 0.894531
vt 0.880859 0.894531
vt 0.880859 0.906250
vt 0.875000 0.906250
vt 0.750000 0.937500
vt 0.757812 0.937500
vt 0.757812 0.943359
vt 0.750000 0.943359
vt 0.812500 0.937500
vt 0.867188 0.937500
vt 0.867188 0.943359
vt 0.812500 0.943359
vt 0.750000 0.841797
vt 0.757812 0.841797
vt 0.757812 0.873047
vt 0.750000 0.873047
vt 0.880859 0.875000
vt 0.875000 0.875000
vt 0.875000 0.865234
vt 0.880859 0.865234
vt 0.880859 0.875000
vt 0.875000 0.875000
vt 0.812500 0.906250
vt 0.804688 0.906250
vt 0.750000 0.906250
vt 0.750000 0.912109
vt 0.812500 0.912109
vt 0.804688 0.906250
vt 0.812500 0.906250
vt 0.812500 0.912109
vt 0.875000 0.921875
vt 0.875000 0.937500
vt 0.929688 0.937500
vt 0.929688 0.921875
vt 0.812500 0.921875
vt 0.812500 0.937500
vt 0.820312 0.937500
vt 0.820312 0.921875
vt 0.812500 0.906250
vt 0.812500 0.937500
vt 0.804688 0.937500
vt 0.804688 0.906250
vt 0.812500 0.906250
vt 0.812500 0.937500
vt 0.804688 0.937500
vt 0.804688 0.906250
vt 0.750000 0.906250
vt 0.750000 0.937500
vt 0.804688 0.937500
vt 0.804688 0.906250
vt 0.750000 0.906250
vt 0.750000 0.937500
vt 0.804688 0.937500
vt 0.804688 0.906250
vt 0.867188 0.873047
vt 0.867188 0.841797
vt 0.875000 0.841797
vt 0.875000 0.873047
vt 0.757812 1.000000
vt 0.757812 0.994141
vt 0.812500 0.994141
vt 0.812500 1.000000
vt 0.875000 0.906250
vt 0.820312 0.906250
vt 0.750000 0.994141
vt 0.867188 0.994141
vt 0.931641 0.906250
vt 0.931641 0.894531
vt 0.937500 0.894531
vt 0.937500 0.906250
vt 0.931641 0.894531
vt 0.931641 0.906250
vt 0.812500 0.937500
vt 0.812500 0.906250
vt 0.906250 0.812500
vt 0.906250 0.843750
vt 0.931641 0.875000
vt 0.931641 0.843750
vt 0.937500 0.843750
vt 0.937500 0.875000
vt 0.931641 0.812500
vt 0.937500 0.812500
vt 0.931641 0.865234
vt 0.931641 0.843750
vt 0.937500 0.843750
vt 0.937500 0.865234
vt 0.931641 0.812500
vt 0.937500 0.812500
vt 0.750000 1.000000
vt 0.937500 0.894531
vt 0.937500 0.906250
vt 0.906250 0.812500
vt 0.906250 0.843750
vt 0.867188 1.000000
vt 0.875000 0.994141
vt 0.875000 1.000000
vt 0.875000 0.937500
vt 0.875000 0.943359
vt 0.937500 0.921875
vt 0.937500 0.906250
vt 0.929688 0.906250
vt 0.812500 0.937500
vt 0.812500 0.906250
vt 0.750000 0.937500
vt 0.812500 0.937500
vt 0.812500 0.937500
vt 0.937500 0.937500
vt 0.812500 0.906250
vt 0.931641 0.875000
vt 0.937500 0.875000
vt 0.812500 0.828125
vt 0.867188 0.828125
vt 0.867188 0.843750
vt 0.812500 0.843750
vt 0.755859 0.828125
vt 0.763672 0.828125
vt 0.763672 0.843750
vt 0.755859 0.843750
vt 0.869141 0.814453
vt 0.861328 0.814453
vt 0.861328 0.843750
vt 0.869141 0.843750
vt 0.812500 0.906250
vt 0.804688 0.906250
vt 0.804688 0.937500
vt 0.812500 0.937500
vt 0.812500 0.814453
vt 0.867188 0.814453
vt 0.867188 0.843750
vt 0.812500 0.843750
vt 0.750000 0.906250
vt 0.804688 0.906250
vt 0.804688 0.937500
vt 0.750000 0.937500
vt 0.867188 0.843750
vt 0.867188 0.814453
vt 0.757812 0.828125
vt 0.757812 0.814453
vt 0.812500 0.814453
vt 0.812500 0.906250
vt 0.812500 0.937500
vt 0.861328 0.828125
vt 0.861328 0.814453
vt 0.869141 0.814453
vt 0.869141 0.828125
vt 0.861328 0.843750
vt 0.861328 0.814453
vt 0.869141 0.814453
vt 0.869141 0.843750
vt 0.861328 0.843750
vt 0.869141 0.843750
vt 0.757812 0.843750
vt 0.755859 0.814453
vt 0.763672 0.814453
vt 0.867188 0.814453
vn 1.0000 0.0000 0.0000
vn 0.8315 0.5555 0.0002
vn 0.7057 0.7085 0.0000
vn 0.7071 0.0000 0.7071
vn 0.8314 0.5556 -0.0001
vn 0.6658 0.3337 0.6673
vn 0.7071 0.0000 -0.7071
vn 0.0000 0.0000 -1.0000
vn -0.0007 0.5556 -0.8314
vn 0.6661 0.3336 -0.6671
vn -0.7071 0.0000 0.7071
vn 0.4464 -0.0004 0.8948
vn 0.5542 -0.0002 0.8324
vn 0.7745 0.6325 0.0000
vn 0.6261 0.5113 0.5887
vn 0.5388 0.0000 0.8424
vn 0.4496 0.6230 0.6401
vn -0.5164 0.6419 0.5668
vn 0.1414 0.6931 -0.7068
vn 0.6261 0.5113 -0.5886
vn 0.1989 0.9800 0.0000
vn 0.1407 0.6931 0.7069
vn 0.1996 0.9799 0.0006
vn 0.1991 0.9799 0.0002
vn -0.0015 1.0000 0.0001
vn -0.0010 0.5543 0.8323
vn -1.0000 0.0000 0.0000
vn -0.6283 0.7779 0.0003
vn -0.6316 0.7753 0.0010
vn -0.6268 0.7792 0.0000
vn 0.5852 0.8109 0.0000
vn 0.5863 0.8101 0.0017
vn 0.5870 0.8095 0.0084
vn 0.0000 0.0000 1.0000
vn 0.5500 -0.0127 -0.8350
vn 0.4503 0.6266 -0.6360
vn -0.7071 0.0000 -0.7071
vn 0.0003 0.4472 -0.8944
vn 0.7089 -0.0081 -0.7053
vn 0.5510 -0.0018 -0.8345
vn 0.4419 -0.0029 -0.8970
vn -0.5215 0.6373 -0.5673
vn 0.0005 0.4473 0.8944
vn 0.0009 1.0000 0.0001
vn 1.0000 -0.0059 0.0016
vn 0.9997 -0.0175 0.0189
vn 1.0000 -0.0002 0.0010
vn 1.0000 -0.0005 0.0021
vn 1.0000 -0.0016 -0.0070
vn 0.9999 -0.0057 0.0101
vn 0.9999 -0.0032 -0.0140
usemtl House_01_Test.044
s 1
f 1/1/1 2/2/1 3/3/2 4/4/3
f 5/5/4 6/6/1 7/7/5 8/8/6
f 9/9/7 10/10/8 11/11/9 12/12/10
f 13/13/11 14/14/12 15/15/13 16/16/11
f 17/17/4 18/18/1 19/19/14 20/20/15
f 21/21/1 22/22/1 23/23/14 24/24/14
f 25/25/11 26/26/16 27/27/17 28/28/18
f 29/29/7 30/30/8 31/31/19 32/32/20
f 20/33/15 19/34/14 33/35/21 34/36/22
f 24/37/14 23/38/14 35/39/23 36/40/24
f 8/41/6 7/42/5 18/43/1 17/44/4
f 12/12/10 11/11/9 30/45/8 29/46/7
f 37/47/11 38/48/4 26/49/16 25/50/11
f 8/51/6 7/52/5 4/53/3 39/54/25 40/55/26
f 4/53/3 3/56/2 12/57/10 11/58/9 39/54/25
f 41/59/27 42/60/28 43/61/29 44/62/27
f 25/63/11 28/64/18 45/65/30 46/66/27
f 16/67/11 37/68/11 47/69/27 48/70/27
f 13/71/11 16/72/11 48/73/27 49/74/27
f 50/75/27 51/76/27 52/77/27 53/78/27
f 54/79/27 50/80/27 53/81/27 55/82/27
f 7/7/5 6/6/1 1/1/1 4/4/3
f 19/19/14 18/18/1 21/21/1 24/24/14
f 22/83/1 3/84/2 12/85/10 29/86/7
f 47/69/27 51/76/27 50/75/27 48/70/27
f 45/87/30 56/88/31 57/89/32 42/90/28
f 48/73/27 50/80/27 54/79/27 49/74/27
f 46/66/27 41/59/27 51/91/27 47/92/27
f 34/36/22 33/35/21 56/88/31 27/93/17
f 36/40/24 35/39/23 58/94/33 57/89/32
f 34/95/22 59/96/34 17/97/4 20/98/15
f 36/40/24 33/35/21 19/34/14 24/37/14
f 31/31/19 30/30/8 60/99/35 61/100/36
f 53/81/27 62/101/37 63/102/37 55/82/27
f 11/11/9 10/10/8 64/103/8 65/104/38
f 59/105/34 40/106/26 8/107/6 17/108/4
f 40/106/26 66/109/34 5/110/4 8/107/6
f 67/111/39 68/112/40 62/113/37 69/114/37
f 68/112/40 70/115/41 63/116/37 62/113/37
f 27/93/17 56/88/31 45/87/30 28/117/18
f 57/89/32 56/88/31 33/35/21 36/40/24
f 61/100/36 60/99/35 71/118/37 72/119/42
f 27/27/17 26/26/16 59/96/34 34/95/22
f 15/15/13 14/14/12 73/120/34 74/121/43
f 57/89/32 58/94/33 43/122/29 42/90/28
f 23/23/14 22/22/1 29/29/7 32/32/20
f 43/122/29 58/94/33 61/123/36 72/124/42
f 35/39/23 23/38/14 32/125/20 31/126/19
f 44/62/27 71/127/37 69/128/37 52/129/27
f 58/94/33 35/39/23 31/126/19 61/123/36
f 52/77/27 69/130/37 62/131/37 53/78/27
f 3/3/2 2/2/1 9/9/7 12/12/10
f 65/104/38 64/103/8 70/115/41 68/112/40
f 74/121/43 73/120/34 66/109/34 40/106/26
f 40/55/26 39/54/25 75/132/44 74/133/43
f 39/54/25 11/58/9 65/134/38 75/132/44
f 43/61/29 72/135/42 71/127/37 44/62/27
f 45/65/30 42/60/28 41/59/27 46/66/27
f 37/136/11 25/63/11 46/66/27 47/92/27
f 51/91/27 41/59/27 44/62/27 52/129/27
f 60/137/35 67/111/39 69/114/37 71/138/37
f 16/16/11 15/15/13 38/48/4 37/47/11
f 76/139/45 77/140/46 58/141/33 57/142/32
f 26/143/16 78/144/1 56/145/31 27/146/17
f 15/147/13 79/148/47 80/149/1 38/150/4
f 14/151/12 81/152/48 79/153/47 15/154/13
f 82/155/1 83/156/49 84/157/50 85/158/1
f 86/159/1 87/160/51 83/161/49 82/162/1
f 80/163/1 79/164/47 82/155/1 85/158/1
f 79/153/47 81/152/48 86/159/1 82/162/1
f 78/165/1 80/166/1 85/167/1 76/139/45
f 83/161/49 87/160/51 70/168/41 68/169/40
f 77/170/46 84/171/50 67/172/39 60/173/35
f 84/174/50 83/175/49 68/176/40 67/177/39
f 58/178/33 77/170/46 60/173/35 61/179/36
f 56/180/31 78/165/1 76/139/45 57/142/32
f 38/181/4 80/182/1 78/144/1 26/143/16
f 85/167/1 84/183/50 77/140/46 76/139/45
