# Blender v2.93.5 OBJ File: ''
# www.blender.org
mtllib SM_ModularHouse_Mid_04.mtl
o Cube.019_Cube.069
v -1.527445 0.003899 1.670107
v -0.045492 0.003899 1.670107
v -0.045492 1.526827 1.670107
v -1.527445 1.526827 1.670100
v 1.436461 0.003900 -1.670095
v -0.045492 0.003900 -1.670110
v -0.045492 1.526828 -1.670110
v 1.436461 1.526828 -1.670110
v -2.320072 0.003900 -0.886152
v -2.320072 0.003899 0.000002
v -2.320072 1.526827 0.000003
v -2.320072 1.526827 -0.886144
v 2.229088 0.003899 0.886149
v 2.229088 0.003899 0.000002
v 2.229088 1.526827 -0.000005
v 2.229088 1.526827 0.886149
v -2.320072 0.003899 1.670107
v -1.860778 0.003899 1.670107
v -1.860778 1.526827 1.670100
v -2.320072 1.526827 1.670100
v -1.527445 0.003900 -1.670103
v -1.860778 0.003900 -1.670103
v -1.860778 1.526828 -1.670102
v -1.527445 1.526828 -1.670110
v 2.229088 0.003900 -1.670110
v 1.769795 0.003900 -1.670095
v 1.769795 1.526828 -1.670110
v 2.229088 1.526828 -1.670110
v 1.436461 0.003899 1.670107
v 1.769795 0.003899 1.670107
v 1.769795 1.526827 1.670107
v 1.436461 1.526827 1.670107
v 2.229088 0.003900 -0.886152
v 2.229088 0.003900 -1.219480
v 2.229088 1.526828 -1.219480
v 2.229088 1.526827 -0.886144
v -2.320072 0.003900 -1.670095
v -2.320072 0.003900 -1.219480
v -2.320072 1.526828 -1.219480
v -2.320072 1.526828 -1.670110
v 2.229088 0.003899 1.670107
v 2.229088 0.003899 1.219485
v 2.229088 1.526827 1.219485
v 2.229088 1.526827 1.670100
v -2.320072 0.003899 0.886149
v -2.320072 0.003899 1.219492
v -2.320072 1.526827 1.219485
v -2.320072 1.526827 0.886149
v -0.045492 1.526827 1.219477
v -1.527445 1.526827 1.219477
v -1.860778 1.526827 1.219477
v 1.769795 1.526827 1.219470
v 1.436461 1.526827 1.219470
v -0.045492 1.526828 -1.219495
v 1.436461 1.526828 -1.219495
v 1.769795 1.526828 -1.219495
v -1.860778 1.526828 -1.219495
v -1.527445 1.526828 -1.219495
v -1.527445 1.526827 0.886149
v -1.860778 1.526827 0.886149
v 1.436461 1.526827 0.886141
v -0.045492 1.526827 0.886149
v 1.769795 1.526827 0.886141
v 1.436461 1.526827 -0.000005
v -0.045492 1.526827 -0.000005
v 1.769795 1.526827 -0.000005
v -1.527445 1.526827 -0.000005
v -1.860778 1.526827 -0.000005
v -0.045492 1.526827 -0.886167
v -1.527445 1.526827 -0.886167
v -1.860778 1.526827 -0.886167
v 1.436461 1.526827 -0.886167
v 1.769795 1.526827 -0.886167
v 2.229088 1.526827 -0.888601
v -1.860778 0.003899 1.219492
v -1.860778 0.003899 0.886164
v -1.860778 0.003900 -1.219473
v -1.860778 0.003900 -0.886152
v -1.860778 0.003899 0.000002
v 2.229088 0.003899 0.888598
v 1.769795 0.003899 0.886164
v 1.769795 0.003899 0.000002
v 1.769795 0.003900 -1.219473
v 1.769795 0.003900 -0.886144
v 1.769795 0.003899 1.219492
v 1.436461 0.003899 1.219492
v 1.436461 0.003899 0.886164
v -0.045492 0.003899 1.219492
v -0.045492 0.003899 0.886164
v -1.527445 0.003899 1.219500
v -1.527445 0.003899 0.886172
v 1.436461 0.003899 0.000002
v -0.045492 0.003899 0.000002
v -1.527445 0.003899 0.000002
v -1.527445 0.003900 -0.886152
v -0.045492 0.003900 -0.886144
v 1.436461 0.003900 -0.886144
v -1.527445 0.003900 -1.219473
v -0.045492 0.003900 -1.219480
v 1.436461 0.003900 -1.219473
vt 0.658203 0.939453
vt 0.734375 0.939453
vt 0.734375 1.000000
vt 0.658203 1.000000
vt 0.658203 0.937500
vt 0.734375 0.937500
vt 0.734375 1.000000
vt 0.658203 1.000000
vt 0.589844 0.939453
vt 0.625000 0.939453
vt 0.625000 1.000000
vt 0.589844 1.000000
vt 0.589844 0.876953
vt 0.625000 0.876953
vt 0.625000 0.937500
vt 0.589844 0.937500
vt 0.625000 0.939453
vt 0.642578 0.939453
vt 0.642578 1.000000
vt 0.625000 1.000000
vt 0.658203 0.875000
vt 0.642578 0.875000
vt 0.642578 0.937500
vt 0.658203 0.937500
vt 0.625000 0.937500
vt 0.642578 0.937500
vt 0.642578 1.000000
vt 0.625000 1.000000
vt 0.658203 0.876953
vt 0.642578 0.876953
vt 0.642578 0.937500
vt 0.658203 0.937500
vt 0.589844 0.876953
vt 0.580078 0.876953
vt 0.580078 0.937500
vt 0.589844 0.937500
vt 0.562500 0.939453
vt 0.580078 0.939453
vt 0.580078 1.000000
vt 0.562500 1.000000
vt 0.562500 0.939453
vt 0.580078 0.939453
vt 0.580078 1.000000
vt 0.562500 1.000000
vt 0.589844 0.876953
vt 0.580078 0.876953
vt 0.580078 0.937500
vt 0.589844 0.937500
vt 0.625000 0.875000
vt 0.625000 0.937500
vt 0.625000 0.939453
vt 0.589844 0.939453
vt 0.589844 1.000000
vt 0.625000 1.000000
vt 0.625000 0.876953
vt 0.625000 0.937500
vt 0.734375 0.875000
vt 0.734375 0.937500
vt 0.562500 0.876953
vt 0.562500 0.937500
vt 0.734375 0.876953
vt 0.734375 0.937500
vt 0.562500 0.876953
vt 0.562500 0.937500
vt 0.589844 0.939453
vt 0.589844 1.000000
vt 0.625000 0.876953
vt 0.625000 0.937500
vt 0.572266 0.593750
vt 0.648438 0.593750
vt 0.648438 0.610614
vt 0.572266 0.610614
vt 0.625000 0.937500
vt 0.642578 0.937500
vt 0.642578 0.954364
vt 0.625000 0.954861
vt 0.625000 0.593750
vt 0.609375 0.593750
vt 0.609375 0.610614
vt 0.625000 0.610614
vt 0.642578 0.875000
vt 0.625000 0.875000
vt 0.625000 0.892054
vt 0.642578 0.891864
vt 0.609375 0.593750
vt 0.625000 0.593750
vt 0.625000 0.610614
vt 0.609375 0.610614
vt 0.587891 0.593750
vt 0.662109 0.593750
vt 0.662109 0.610614
vt 0.587891 0.610614
vt 0.662109 0.593750
vt 0.587891 0.593750
vt 0.587891 0.610613
vt 0.662109 0.610613
vt 0.625000 0.937500
vt 0.642578 0.937500
vt 0.642578 0.954363
vt 0.625000 0.954363
vt 0.625000 0.593750
vt 0.609375 0.593750
vt 0.609375 0.610613
vt 0.625000 0.610613
vt 0.642578 0.875000
vt 0.625000 0.875000
vt 0.625000 0.891809
vt 0.642578 0.891863
vt 0.609375 0.593750
vt 0.625000 0.593750
vt 0.625000 0.610613
vt 0.609375 0.610613
vt 0.648438 0.593750
vt 0.572266 0.593750
vt 0.572266 0.610613
vt 0.648438 0.610613
vt 0.625000 0.623088
vt 0.609375 0.623088
vt 0.662109 0.623088
vt 0.587891 0.623088
vt 0.609375 0.623088
vt 0.625000 0.623088
vt 0.648438 0.623088
vt 0.572266 0.623088
vt 0.662109 0.656250
vt 0.587891 0.656250
vt 0.609375 0.656250
vt 0.625000 0.656250
vt 0.648438 0.656250
vt 0.572266 0.656250
vt 0.625000 0.656250
vt 0.609375 0.656250
vt 0.642578 0.904338
vt 0.625000 0.904338
vt 0.642578 0.937500
vt 0.648438 0.623087
vt 0.572266 0.623087
vt 0.625000 0.623087
vt 0.609375 0.623087
vt 0.642578 0.904337
vt 0.625000 0.904337
vt 0.642578 0.937500
vt 0.662109 0.623087
vt 0.587891 0.623087
vt 0.609375 0.623087
vt 0.625000 0.623087
vt 0.642578 0.966837
vt 0.625000 0.966746
vt 0.642578 1.000000
vt 0.625000 0.966607
vt 0.642578 0.966838
vt 0.642578 1.000000
vt 0.642578 0.891863
vt 0.625000 0.891809
vt 0.625000 0.904337
vt 0.642578 0.904337
vt 0.625000 0.954861
vt 0.642578 0.954364
vt 0.642578 0.966838
vt 0.625000 0.966607
vt 0.642578 1.000000
vt 0.625000 1.000000
vt 0.625000 0.966746
vt 0.642578 0.966837
vt 0.642578 1.000000
vt 0.625000 1.000000
vt 0.642578 0.891864
vt 0.625000 0.892054
vt 0.625000 0.904338
vt 0.642578 0.904338
vt 0.609375 0.610613
vt 0.625000 0.610613
vt 0.625000 0.623087
vt 0.609375 0.623087
vt 0.662109 0.610613
vt 0.587891 0.610613
vt 0.587891 0.623087
vt 0.662109 0.623087
vt 0.625000 0.610613
vt 0.609375 0.610613
vt 0.609375 0.623087
vt 0.625000 0.623087
vt 0.648438 0.610613
vt 0.572266 0.610613
vt 0.572266 0.623087
vt 0.648438 0.623087
vt 0.625000 0.954363
vt 0.642578 0.954363
vt 0.625000 0.656250
vt 0.609375 0.656250
vt 0.587891 0.656250
vt 0.662109 0.656250
vt 0.625000 0.937500
vt 0.642578 0.937500
vt 0.609375 0.656250
vt 0.625000 0.656250
vt 0.572266 0.656250
vt 0.648438 0.656250
vt 0.625000 0.937500
vt 0.642578 0.937500
vt 0.609375 0.623088
vt 0.625000 0.623088
vt 0.572266 0.623088
vt 0.648438 0.623088
vt 0.625000 0.623088
vt 0.609375 0.623088
vt 0.587891 0.623088
vt 0.662109 0.623088
vt 0.572266 0.610614
vt 0.648438 0.610614
vt 0.625000 0.610614
vt 0.609375 0.610614
vt 0.587891 0.610614
vt 0.662109 0.610614
vt 0.609375 0.610614
vt 0.625000 0.610614
vt 0.648438 0.593750
vt 0.572266 0.593750
vt 0.609375 0.593750
vt 0.625000 0.593750
vt 0.642578 0.875000
vt 0.625000 0.875000
vt 0.625000 0.593750
vt 0.609375 0.593750
vt 0.625000 0.937500
vt 0.642578 0.937500
vt 0.662109 0.593750
vt 0.587891 0.593750
vt 0.587891 0.593750
vt 0.662109 0.593750
vt 0.609375 0.593750
vt 0.625000 0.593750
vt 0.642578 0.875000
vt 0.625000 0.875000
vt 0.625000 0.593750
vt 0.609375 0.593750
vt 0.625000 0.937500
vt 0.642578 0.937500
vt 0.572266 0.593750
vt 0.648438 0.593750
vn -0.0000 0.0000 1.0000
vn 0.0000 -0.0000 -1.0000
vn -1.0000 -0.0000 0.0000
vn 1.0000 -0.0000 0.0000
vn 0.0000 1.0000 0.0000
vn 0.0000 -1.0000 -0.0000
usemtl House_01_Test.055
s 1
f 1/1/1 2/2/1 3/3/1 4/4/1
f 5/5/2 6/6/2 7/7/2 8/8/2
f 9/9/3 10/10/3 11/11/3 12/12/3
f 13/13/4 14/14/4 15/15/4 16/16/4
f 17/17/1 18/18/1 19/19/1 20/20/1
f 21/21/2 22/22/2 23/23/2 24/24/2
f 25/25/2 26/26/2 27/27/2 28/28/2
f 29/29/1 30/30/1 31/31/1 32/32/1
f 33/33/4 34/34/4 35/35/4 36/36/4
f 37/37/3 38/38/3 39/39/3 40/40/3
f 41/41/4 42/42/4 43/43/4 44/44/4
f 45/45/3 46/46/3 47/47/3 48/48/3
f 22/22/2 37/49/2 40/50/2 23/23/2
f 38/38/3 9/9/3 12/12/3 39/39/3
f 14/51/4 33/52/4 36/53/4 15/54/4
f 30/30/1 41/55/1 44/56/1 31/31/1
f 6/57/2 21/21/2 24/24/2 7/58/2
f 46/46/3 17/59/3 20/60/3 47/47/3
f 18/18/1 1/1/1 4/4/1 19/19/1
f 2/61/1 29/29/1 32/32/1 3/62/1
f 34/34/4 25/63/4 28/64/4 35/35/4
f 42/42/4 13/65/4 16/66/4 43/43/4
f 10/67/3 45/45/3 48/48/3 11/68/3
f 26/26/2 5/5/2 8/8/2 27/27/2
f 4/69/5 3/70/5 49/71/5 50/72/5
f 20/73/5 19/74/5 51/75/5 47/76/5
f 32/77/5 31/78/5 52/79/5 53/80/5
f 31/81/5 44/82/5 43/83/5 52/84/5
f 19/85/5 4/86/5 50/87/5 51/88/5
f 3/89/5 32/90/5 53/91/5 49/92/5
f 8/93/5 7/94/5 54/95/5 55/96/5
f 28/97/5 27/98/5 56/99/5 35/100/5
f 24/101/5 23/102/5 57/103/5 58/104/5
f 23/105/5 40/106/5 39/107/5 57/108/5
f 27/109/5 8/110/5 55/111/5 56/112/5
f 7/113/5 24/114/5 58/115/5 54/116/5
f 51/88/5 50/87/5 59/117/5 60/118/5
f 49/92/5 53/91/5 61/119/5 62/120/5
f 53/80/5 52/79/5 63/121/5 61/122/5
f 50/72/5 49/71/5 62/123/5 59/124/5
f 62/120/5 61/119/5 64/125/5 65/126/5
f 61/122/5 63/121/5 66/127/5 64/128/5
f 59/124/5 62/123/5 65/129/5 67/130/5
f 60/118/5 59/117/5 67/131/5 68/132/5
f 63/133/5 16/134/5 15/15/5 66/135/5
f 69/136/5 70/137/5 67/130/5 65/129/5
f 70/138/5 71/139/5 68/132/5 67/131/5
f 71/140/5 12/141/5 11/68/5 68/142/5
f 72/143/5 69/144/5 65/126/5 64/125/5
f 73/145/5 72/146/5 64/128/5 66/127/5
f 35/100/5 56/99/5 73/147/5 74/148/5
f 54/116/5 58/115/5 70/137/5 69/136/5
f 58/104/5 57/103/5 71/139/5 70/138/5
f 55/96/5 54/95/5 69/144/5 72/143/5
f 56/112/5 55/111/5 72/146/5 73/145/5
f 52/84/5 43/83/5 16/134/5 63/133/5
f 74/148/5 73/147/5 66/149/5 15/54/5
f 48/150/5 60/151/5 68/152/5 11/11/5
f 47/76/5 51/75/5 60/151/5 48/150/5
f 57/108/5 39/107/5 12/141/5 71/140/5
f 75/153/6 46/154/6 45/155/6 76/156/6
f 38/157/6 77/158/6 78/159/6 9/160/6
f 9/160/6 78/159/6 79/161/6 10/162/6
f 80/163/6 81/164/6 82/165/6 14/166/6
f 83/167/6 34/168/6 33/169/6 84/170/6
f 85/171/6 86/172/6 87/173/6 81/174/6
f 86/175/6 88/176/6 89/177/6 87/178/6
f 90/179/6 75/180/6 76/181/6 91/182/6
f 88/183/6 90/184/6 91/185/6 89/186/6
f 42/187/6 85/188/6 81/164/6 80/163/6
f 81/174/6 87/173/6 92/189/6 82/190/6
f 87/178/6 89/177/6 93/191/6 92/192/6
f 76/156/6 45/155/6 10/193/6 79/194/6
f 91/182/6 76/181/6 79/195/6 94/196/6
f 89/186/6 91/185/6 94/197/6 93/198/6
f 84/170/6 33/169/6 14/199/6 82/200/6
f 78/201/6 95/202/6 94/196/6 79/195/6
f 95/203/6 96/204/6 93/198/6 94/197/6
f 97/205/6 84/206/6 82/190/6 92/189/6
f 96/207/6 97/208/6 92/192/6 93/191/6
f 98/209/6 99/210/6 96/204/6 95/203/6
f 100/211/6 83/212/6 84/206/6 97/205/6
f 99/213/6 100/214/6 97/208/6 96/207/6
f 77/215/6 98/216/6 95/202/6 78/201/6
f 2/217/6 1/218/6 90/184/6 88/183/6
f 30/219/6 29/220/6 86/172/6 85/171/6
f 18/221/6 17/222/6 46/154/6 75/153/6
f 1/223/6 18/224/6 75/180/6 90/179/6
f 41/225/6 30/226/6 85/188/6 42/187/6
f 29/227/6 2/228/6 88/176/6 86/175/6
f 6/229/6 5/230/6 100/214/6 99/213/6
f 22/231/6 21/232/6 98/216/6 77/215/6
f 26/233/6 25/234/6 34/168/6 83/167/6
f 5/235/6 26/236/6 83/212/6 100/211/6
f 37/237/6 22/238/6 77/158/6 38/157/6
f 21/239/6 6/240/6 99/210/6 98/209/6
