# Blender v2.93.5 OBJ File: ''
# www.blender.org
mtllib SM_ModularHouse_Roof_04.mtl
o Cube.022_Cube.080
v -0.000010 -0.034966 1.670349
v 1.481943 -0.034966 1.670349
v 1.481943 -0.107121 1.834297
v -0.000010 -0.107121 1.834297
v -0.000010 0.019836 -1.788216
v 1.481943 0.019836 -1.788216
v 1.481943 -0.028953 -1.916039
v -0.000010 -0.028953 -1.916039
v -0.000010 -0.034965 -1.669869
v -1.481962 -0.034965 -1.669869
v -1.481962 -0.107120 -1.833809
v -0.000010 -0.107120 -1.833809
v -1.481962 -0.028953 -1.916039
v 1.481943 -0.028954 1.910316
v -0.000010 -0.028954 1.910316
v -0.000010 0.019835 1.788704
v -1.481962 0.019835 1.788704
v -1.481962 -0.028954 1.910316
v 1.481943 0.019835 1.788704
v 1.481943 0.736815 1.195938
v -0.000010 0.736815 1.195938
v -1.481962 0.019836 -1.788216
v -1.481962 0.736816 -1.195458
v -0.000010 0.736816 -1.195458
v -0.000010 1.179732 0.893211
v 1.481943 1.179732 0.893211
v 1.481943 1.622649 0.659767
v -0.000010 1.622649 0.659767
v -0.000010 1.179732 -0.892731
v -1.481962 1.179732 -0.892731
v -1.481962 1.622649 -0.659286
v -0.000010 1.622649 -0.659286
v -0.000010 2.245356 -0.319588
v -1.481962 2.245356 -0.319588
v -1.481962 2.245356 -0.400108
v -0.000010 2.245356 -0.400108
v -0.000010 2.245356 0.320069
v 1.481943 2.245356 0.320069
v 1.481943 2.245356 0.400589
v -0.000010 2.245356 0.400589
v -0.000010 2.601825 0.000244
v -1.481962 2.601825 0.000244
v -1.481962 2.601825 0.134087
v -0.000010 2.601825 0.134087
v -0.000010 2.566334 -0.183952
v -1.481962 2.566334 -0.183952
v -1.481962 2.601825 -0.133606
v -0.000010 2.601825 -0.133606
v -0.000010 2.566334 0.184433
v -1.481962 2.566334 0.184433
v -1.481962 2.506905 0.252503
v -0.000010 2.506905 0.252503
v -1.481962 2.506905 -0.252014
v -0.000010 2.506905 -0.252014
v 1.481943 2.506905 0.252503
v 1.481943 2.601825 -0.133606
v 1.481943 2.601825 0.000244
v -1.481962 0.736815 1.195938
v -1.481962 1.179732 0.893211
v 1.481943 0.736816 -1.195458
v 1.481943 1.179732 -0.892731
v 1.481943 2.506905 -0.252014
v 1.481943 2.566334 -0.183952
v -1.481962 2.245356 0.400589
v 1.481943 2.245356 -0.400108
v 1.481943 2.601825 0.134087
v 1.481943 2.566334 0.184433
v 1.481943 1.622649 -0.659286
v 1.481943 2.245356 -0.319588
v -1.481962 1.622649 0.659767
v -1.481962 2.245356 0.320069
v -1.481962 -0.107121 1.834297
v 1.481943 -0.107120 -1.833809
v 1.481943 -0.034965 -1.669869
v -1.481962 -0.034966 1.670349
v -0.000010 -0.034966 1.670349
v 1.481943 -0.034966 1.670349
v 1.481943 -0.107121 1.834297
v -0.000010 -0.107121 1.834297
v -0.000010 0.019836 -1.788216
v 1.481943 0.019836 -1.788216
v 1.481943 -0.028953 -1.916039
v -0.000010 -0.028953 -1.916039
v -0.000010 -0.034965 -1.669869
v -1.481962 -0.034965 -1.669869
v -1.481962 -0.107120 -1.833809
v -0.000010 -0.107120 -1.833809
v -1.481962 -0.028953 -1.916039
v 1.481943 -0.028954 1.910316
v -0.000010 -0.028954 1.910316
v -0.000010 0.019835 1.788704
v -1.481962 0.019835 1.788704
v -1.481962 -0.028954 1.910316
v 1.481943 0.019835 1.788704
v 1.481943 0.736815 1.195938
v -0.000010 0.736815 1.195938
v -1.481962 0.019836 -1.788216
v -1.481962 0.736816 -1.195458
v -0.000010 0.736816 -1.195458
v -0.000010 1.179732 0.893211
v 1.481943 1.179732 0.893211
v 1.481943 1.622649 0.659767
v -0.000010 1.622649 0.659767
v -0.000010 1.179732 -0.892731
v -1.481962 1.179732 -0.892731
v -1.481962 1.622649 -0.659286
v -0.000010 1.622649 -0.659286
v -0.000010 2.245356 -0.319588
v -1.481962 2.245356 -0.319588
v -1.481962 2.245356 -0.400108
v -0.000010 2.245356 -0.400108
v -0.000010 2.245356 0.320069
v 1.481943 2.245356 0.320069
v 1.481943 2.245356 0.400589
v -0.000010 2.245356 0.400589
v -0.000010 2.601825 0.000244
v -1.481962 2.601825 0.000244
v -1.481962 2.601825 0.134087
v -0.000010 2.601825 0.134087
v -0.000010 2.566334 -0.183952
v -1.481962 2.566334 -0.183952
v -1.481962 2.601825 -0.133606
v -0.000010 2.601825 -0.133606
v -0.000010 2.566334 0.184433
v -1.481962 2.566334 0.184433
v -1.481962 2.506905 0.252503
v -0.000010 2.506905 0.252503
v -1.481962 2.506905 -0.252014
v -0.000010 2.506905 -0.252014
v 1.481943 2.506905 0.252503
v 1.481943 2.601825 -0.133606
v 1.481943 2.601825 0.000244
v -1.481962 0.736815 1.195938
v -1.481962 1.179732 0.893211
v 1.481943 0.736816 -1.195458
v 1.481943 1.179732 -0.892731
v 1.481943 2.506905 -0.252014
v 1.481943 2.566334 -0.183952
v -1.481962 2.245356 0.400589
v 1.481943 2.245356 -0.400108
v 1.481943 2.601825 0.134087
v 1.481943 2.566334 0.184433
v 1.481943 1.622649 -0.659286
v 1.481943 2.245356 -0.319588
v -1.481962 1.622649 0.659767
v -1.481962 2.245356 0.320069
v -1.481962 -0.107121 1.834297
v 1.481943 -0.107120 -1.833809
v 1.481943 -0.034965 -1.669869
v -1.481962 -0.034966 1.670349
vt 0.968750 0.695312
vt 0.914062 0.695312
vt 0.914062 0.687500
vt 0.968750 0.687500
vt 0.968750 0.695312
vt 0.914062 0.695312
vt 0.914062 0.687500
vt 0.968750 0.687500
vt 0.968750 0.687500
vt 0.914062 0.687500
vt 0.914062 0.695312
vt 0.968750 0.695312
vt 0.966797 0.679688
vt 0.914062 0.679688
vt 0.914062 0.687500
vt 0.966797 0.687500
vt 0.968750 0.679688
vt 0.914062 0.679688
vt 0.914062 0.687500
vt 0.968750 0.687500
vt 0.964844 0.695312
vt 0.912109 0.695312
vt 0.912109 0.687500
vt 0.964844 0.687500
vt 0.968750 0.695312
vt 0.914062 0.695312
vt 0.914062 0.732422
vt 0.968750 0.732422
vt 0.966797 0.695312
vt 0.914062 0.695312
vt 0.914062 0.732422
vt 0.966797 0.732422
vt 0.968750 0.750000
vt 0.914062 0.750000
vt 0.914062 0.765625
vt 0.968750 0.765625
vt 0.966797 0.750000
vt 0.914062 0.750000
vt 0.914062 0.765625
vt 0.966797 0.765625
vt 1.000000 0.625000
vt 0.937500 0.625000
vt 0.937500 0.632812
vt 1.000000 0.632812
vt 1.000000 0.632812
vt 0.937500 0.632812
vt 0.937500 0.625000
vt 1.000000 0.625000
vt 0.914062 0.789062
vt 0.968750 0.789062
vt 0.914062 0.789062
vt 0.966797 0.789062
vt 1.000000 0.650391
vt 0.937500 0.650391
vt 0.937500 0.644531
vt 1.000000 0.644531
vt 1.000000 0.660156
vt 0.937500 0.660156
vt 0.937500 0.656250
vt 1.000000 0.656250
vt 1.000000 0.642578
vt 0.937500 0.642578
vt 0.937500 0.638672
vt 1.000000 0.638672
vt 1.000000 0.648438
vt 0.937500 0.648438
vt 1.000000 0.625000
vt 0.937500 0.625000
vt 0.937500 0.638672
vt 1.000000 0.638672
vt 0.937500 0.638672
vt 1.000000 0.664062
vt 0.937500 0.664062
vt 0.937500 0.656250
vt 0.937500 0.650391
vt 0.912109 0.732422
vt 0.964844 0.732422
vt 0.964844 0.750000
vt 0.912109 0.750000
vt 0.914062 0.732422
vt 0.968750 0.732422
vt 0.968750 0.750000
vt 0.914062 0.750000
vt 0.937500 0.664062
vt 0.937500 0.660156
vt 0.937500 0.625000
vt 0.937500 0.625000
vt 0.937500 0.638672
vt 0.937500 0.648438
vt 0.937500 0.642578
vt 0.937500 0.644531
vt 0.914062 0.765625
vt 0.968750 0.765625
vt 0.968750 0.789062
vt 0.914062 0.789062
vt 0.912109 0.765625
vt 0.964844 0.765625
vt 0.964844 0.789062
vt 0.912109 0.789062
vt 0.937500 0.632812
vt 0.937500 0.625000
vt 0.937500 0.632812
vt 0.914062 0.679688
vt 0.966797 0.679688
vt 0.966797 0.687500
vt 0.914062 0.687500
vt 0.914062 0.679688
vt 0.968750 0.679688
vt 0.914062 0.687500
vt 0.914062 0.695312
vt 0.914062 0.695312
vt 0.914062 0.687500
vt 0.968750 0.695312
vt 0.914062 0.695312
vt 0.914062 0.687500
vt 0.968750 0.687500
vt 0.968750 0.695312
vt 0.914062 0.695312
vt 0.914062 0.687500
vt 0.968750 0.687500
vt 0.968750 0.687500
vt 0.914062 0.687500
vt 0.914062 0.695312
vt 0.968750 0.695312
vt 0.964844 0.679688
vt 0.912109 0.679688
vt 0.912109 0.687500
vt 0.964844 0.687500
vt 0.968750 0.679688
vt 0.914062 0.679688
vt 0.914062 0.687500
vt 0.968750 0.687500
vt 0.964844 0.695312
vt 0.912109 0.695312
vt 0.912109 0.687500
vt 0.964844 0.687500
vt 0.968750 0.695312
vt 0.914062 0.695312
vt 0.914062 0.732422
vt 0.968750 0.732422
vt 0.964844 0.695312
vt 0.912109 0.695312
vt 0.912109 0.732422
vt 0.964844 0.732422
vt 0.968750 0.750000
vt 0.914062 0.750000
vt 0.914062 0.765625
vt 0.968750 0.765625
vt 0.964844 0.750000
vt 0.912109 0.750000
vt 0.912109 0.765625
vt 0.964844 0.765625
vt 1.000000 0.625000
vt 0.937500 0.625000
vt 0.937500 0.632812
vt 1.000000 0.632812
vt 1.000000 0.632812
vt 0.937500 0.632812
vt 0.937500 0.625000
vt 1.000000 0.625000
vt 0.914062 0.789062
vt 0.968750 0.789062
vt 0.912109 0.789062
vt 0.964844 0.789062
vt 1.000000 0.650391
vt 0.937500 0.650391
vt 0.937500 0.644531
vt 1.000000 0.644531
vt 1.000000 0.660156
vt 0.937500 0.660156
vt 0.937500 0.656250
vt 1.000000 0.656250
vt 1.000000 0.642578
vt 0.937500 0.642578
vt 0.937500 0.638672
vt 1.000000 0.638672
vt 1.000000 0.648438
vt 0.937500 0.648438
vt 1.000000 0.625000
vt 0.937500 0.625000
vt 0.937500 0.638672
vt 1.000000 0.638672
vt 0.937500 0.638672
vt 1.000000 0.664062
vt 0.937500 0.664062
vt 0.937500 0.656250
vt 0.937500 0.650391
vt 0.912109 0.732422
vt 0.964844 0.732422
vt 0.964844 0.750000
vt 0.912109 0.750000
vt 0.914062 0.732422
vt 0.968750 0.732422
vt 0.968750 0.750000
vt 0.914062 0.750000
vt 0.937500 0.664062
vt 0.937500 0.660156
vt 0.937500 0.625000
vt 0.937500 0.625000
vt 0.937500 0.638672
vt 0.937500 0.648438
vt 0.937500 0.642578
vt 0.937500 0.644531
vt 0.914062 0.765625
vt 0.968750 0.765625
vt 0.968750 0.789062
vt 0.914062 0.789062
vt 0.912109 0.765625
vt 0.964844 0.765625
vt 0.964844 0.789062
vt 0.912109 0.789062
vt 0.937500 0.632812
vt 0.937500 0.625000
vt 0.937500 0.632812
vt 0.914062 0.679688
vt 0.966797 0.679688
vt 0.966797 0.687500
vt 0.914062 0.687500
vt 0.914062 0.679688
vt 0.968750 0.679688
vt 0.914062 0.687500
vt 0.914062 0.695312
vt 0.914062 0.695312
vt 0.914062 0.687500
vn 0.0000 -0.9153 -0.4028
vn 0.0000 0.9343 -0.3566
vn 0.0000 -0.9153 0.4028
vn 0.0000 -0.7248 -0.6890
vn 0.0000 -0.6972 0.7169
vn 0.0000 0.9281 0.3723
vn 0.0000 0.6372 0.7707
vn 0.0000 0.6372 -0.7707
vn 0.0000 0.4663 0.8846
vn 0.0000 0.4663 -0.8846
vn 0.0000 -1.0000 0.0000
vn 0.0000 0.4789 0.8779
vn 0.0000 0.4789 -0.8779
vn 0.0000 1.0000 0.0000
vn 0.0000 0.8173 -0.5762
vn 0.0000 0.7533 0.6577
vn 0.0000 0.8173 0.5762
vn 0.0000 0.4927 -0.8702
vn 0.0000 0.4927 0.8702
vn 0.0000 0.7533 -0.6577
vn 0.0000 0.5643 -0.8256
vn 0.0000 0.5643 0.8256
usemtl House_01_Test.061
s 1
f 1/1/1 2/2/1 3/3/1 4/4/1
f 5/5/2 6/6/2 7/7/2 8/8/2
f 9/9/3 10/10/3 11/11/3 12/12/3
f 12/13/4 11/14/4 13/15/4 8/16/4
f 4/17/5 3/18/5 14/19/5 15/20/5
f 16/21/6 17/22/6 18/23/6 15/24/6
f 16/25/7 19/26/7 20/27/7 21/28/7
f 5/29/8 22/30/8 23/31/8 24/32/8
f 25/33/9 26/34/9 27/35/9 28/36/9
f 29/37/10 30/38/10 31/39/10 32/40/10
f 33/41/11 34/42/11 35/43/11 36/44/11
f 37/45/11 38/46/11 39/47/11 40/48/11
f 28/36/12 27/35/12 38/49/12 37/50/12
f 32/40/13 31/39/13 34/51/13 33/52/13
f 41/53/14 42/54/14 43/55/14 44/56/14
f 45/57/15 46/58/15 47/59/15 48/60/15
f 49/61/16 50/62/16 51/63/16 52/64/16
f 44/65/17 43/66/17 50/62/17 49/61/17
f 36/67/18 35/68/18 53/69/18 54/70/18
f 40/48/19 39/47/19 55/71/19 52/64/19
f 54/72/20 53/73/20 46/58/20 45/57/20
f 24/32/21 23/31/21 30/38/21 29/37/21
f 21/28/22 20/27/22 26/34/22 25/33/22
f 48/60/14 47/59/14 42/54/14 41/53/14
f 56/74/14 48/60/14 41/53/14 57/75/14
f 58/76/22 21/77/22 25/78/22 59/79/22
f 60/80/21 24/81/21 29/82/21 61/83/21
f 62/84/20 54/72/20 45/57/20 63/85/20
f 64/86/19 40/48/19 52/64/19 51/63/19
f 65/87/18 36/67/18 54/70/18 62/88/18
f 66/89/17 44/65/17 49/61/17 67/90/17
f 67/90/16 49/61/16 52/64/16 55/71/16
f 63/85/15 45/57/15 48/60/15 56/74/15
f 57/75/14 41/53/14 44/56/14 66/91/14
f 68/92/13 32/93/13 33/94/13 69/95/13
f 70/96/12 28/97/12 37/98/12 71/99/12
f 71/100/11 37/45/11 40/48/11 64/86/11
f 69/101/11 33/41/11 36/44/11 65/102/11
f 61/83/10 29/82/10 32/93/10 68/92/10
f 59/79/9 25/78/9 28/97/9 70/96/9
f 6/6/8 5/5/8 24/81/8 60/80/8
f 17/22/7 16/21/7 21/77/7 58/76/7
f 19/26/6 16/25/6 15/20/6 14/19/6
f 72/103/5 4/104/5 15/105/5 18/106/5
f 73/107/4 12/108/4 8/8/4 7/7/4
f 74/109/3 9/9/3 12/12/3 73/110/3
f 22/30/2 5/29/2 8/16/2 13/15/2
f 75/111/1 1/1/1 4/4/1 72/112/1
f 76/113/1 77/114/1 78/115/1 79/116/1
f 80/117/2 81/118/2 82/119/2 83/120/2
f 84/121/3 85/122/3 86/123/3 87/124/3
f 87/125/4 86/126/4 88/127/4 83/128/4
f 79/129/5 78/130/5 89/131/5 90/132/5
f 91/133/6 92/134/6 93/135/6 90/136/6
f 91/137/7 94/138/7 95/139/7 96/140/7
f 80/141/8 97/142/8 98/143/8 99/144/8
f 100/145/9 101/146/9 102/147/9 103/148/9
f 104/149/10 105/150/10 106/151/10 107/152/10
f 108/153/11 109/154/11 110/155/11 111/156/11
f 112/157/11 113/158/11 114/159/11 115/160/11
f 103/148/12 102/147/12 113/161/12 112/162/12
f 107/152/13 106/151/13 109/163/13 108/164/13
f 116/165/14 117/166/14 118/167/14 119/168/14
f 120/169/15 121/170/15 122/171/15 123/172/15
f 124/173/16 125/174/16 126/175/16 127/176/16
f 119/177/17 118/178/17 125/174/17 124/173/17
f 111/179/18 110/180/18 128/181/18 129/182/18
f 115/160/19 114/159/19 130/183/19 127/176/19
f 129/184/20 128/185/20 121/170/20 120/169/20
f 99/144/21 98/143/21 105/150/21 104/149/21
f 96/140/22 95/139/22 101/146/22 100/145/22
f 123/172/14 122/171/14 117/166/14 116/165/14
f 131/186/14 123/172/14 116/165/14 132/187/14
f 133/188/22 96/189/22 100/190/22 134/191/22
f 135/192/21 99/193/21 104/194/21 136/195/21
f 137/196/20 129/184/20 120/169/20 138/197/20
f 139/198/19 115/160/19 127/176/19 126/175/19
f 140/199/18 111/179/18 129/182/18 137/200/18
f 141/201/17 119/177/17 124/173/17 142/202/17
f 142/202/16 124/173/16 127/176/16 130/183/16
f 138/197/15 120/169/15 123/172/15 131/186/15
f 132/187/14 116/165/14 119/168/14 141/203/14
f 143/204/13 107/205/13 108/206/13 144/207/13
f 145/208/12 103/209/12 112/210/12 146/211/12
f 146/212/11 112/157/11 115/160/11 139/198/11
f 144/213/11 108/153/11 111/156/11 140/214/11
f 136/195/10 104/194/10 107/205/10 143/204/10
f 134/191/9 100/190/9 103/209/9 145/208/9
f 81/118/8 80/117/8 99/193/8 135/192/8
f 92/134/7 91/133/7 96/189/7 133/188/7
f 94/138/6 91/137/6 90/132/6 89/131/6
f 147/215/5 79/216/5 90/217/5 93/218/5
f 148/219/4 87/220/4 83/120/4 82/119/4
f 149/221/3 84/121/3 87/124/3 148/222/3
f 97/142/2 80/141/2 83/128/2 88/127/2
f 150/223/1 76/113/1 79/116/1 147/224/1
