# Blender v2.93.5 OBJ File: ''
# www.blender.org
mtllib SM_ModularWall_12.mtl
o Door_01.091_Cube.117
v -0.003417 1.003327 2.004714
v -0.003417 1.003328 1.004714
v -0.003417 2.003328 1.004714
v -0.003417 2.003328 2.004714
v -0.003417 1.003328 0.004714
v -0.003417 2.003328 0.004714
v -0.003417 0.003327 2.004714
v -0.003417 0.003328 1.004714
v -0.003417 0.003328 0.004714
v -1.003416 0.003328 0.004714
v -1.003416 1.003328 0.004714
v -2.003416 0.003328 0.004714
v -2.003416 1.003328 0.004714
v -2.003416 2.003328 0.004714
v -1.003416 2.003328 0.004714
vt -0.000000 0.250000
vt 0.062500 0.250000
vt 0.062500 0.312500
vt -0.000000 0.312500
vt -0.000000 0.250000
vt 0.062500 0.250000
vt 0.062500 0.312500
vt -0.000000 0.312500
vt 0.000000 0.250000
vt 0.062500 0.250000
vt 0.062500 0.312500
vt 0.000000 0.312500
vt 0.000000 0.250000
vt 0.062500 0.250000
vt 0.062500 0.312500
vt 0.000000 0.312500
vt 0.000000 0.250000
vt 0.062500 0.250000
vt 0.062500 0.312500
vt 0.000000 0.312500
vt 0.000000 0.250000
vt 0.062500 0.250000
vt 0.062500 0.312500
vt 0.000000 0.312500
vt 0.000000 0.250000
vt 0.062500 0.250000
vt 0.062500 0.312500
vt 0.000000 0.312500
vt -0.000000 0.250000
vt 0.062500 0.250000
vt 0.062500 0.312500
vt -0.000000 0.312500
vn 1.0000 0.0000 0.0000
vn 0.0000 0.0000 -1.0000
usemtl House_01_Test.129
s 1
f 1/1/1 2/2/1 3/3/1 4/4/1
f 2/5/1 5/6/1 6/7/1 3/8/1
f 7/9/1 8/10/1 2/11/1 1/12/1
f 8/13/1 9/14/1 5/15/1 2/16/1
f 9/17/2 10/18/2 11/19/2 5/20/2
f 10/21/2 12/22/2 13/23/2 11/24/2
f 11/25/2 13/26/2 14/27/2 15/28/2
f 5/29/2 11/30/2 15/31/2 6/32/2
