# Blender v2.93.5 OBJ File: ''
# www.blender.org
mtllib SM_ModularWall_18.mtl
o Door_01.085_Cube.111
v -0.005306 0.005732 1.005309
v -0.005306 0.005733 0.005309
v -0.005306 1.005733 0.005309
v -0.005306 1.005732 1.005309
v -0.005306 2.005733 0.005309
v -0.005306 2.005732 1.005309
v -0.005306 3.005733 0.005309
v -0.005306 3.005732 1.005309
v -1.005306 0.005733 0.005309
v -1.005306 1.005733 0.005309
v -1.005306 2.005733 0.005309
v -1.005306 3.005733 0.005309
vt 0.000000 0.250000
vt 0.062500 0.250000
vt 0.062500 0.312500
vt 0.000000 0.312500
vt 0.000049 0.250049
vt 0.062451 0.250049
vt 0.062451 0.312451
vt 0.000049 0.312451
vt -0.000000 0.250000
vt 0.062500 0.250000
vt 0.062500 0.312500
vt -0.000000 0.312500
vt -0.000000 0.250000
vt 0.062500 0.250000
vt 0.062500 0.312500
vt -0.000000 0.312500
vt 0.000049 0.250049
vt 0.062451 0.250049
vt 0.062451 0.312451
vt 0.000049 0.312451
vt 0.000000 0.250000
vt 0.062500 0.250000
vt 0.062500 0.312500
vt 0.000000 0.312500
vn 1.0000 0.0000 0.0000
vn 0.0000 0.0000 -1.0000
usemtl House_01_Test.136
s 1
f 1/1/1 2/2/1 3/3/1 4/4/1
f 4/5/1 3/6/1 5/7/1 6/8/1
f 6/9/1 5/10/1 7/11/1 8/12/1
f 2/13/2 9/14/2 10/15/2 3/16/2
f 3/17/2 10/18/2 11/19/2 5/20/2
f 5/21/2 11/22/2 12/23/2 7/24/2
