# Blender v2.93.5 OBJ File: ''
# www.blender.org
mtllib SM_ModularPlatform_04.mtl
o Door_01.070_Cube.095
v 1.000002 0.005784 1.000000
v 1.000002 0.005784 0.000000
v 1.000002 1.005784 0.000000
v 1.000002 1.005784 1.000000
v 1.000002 0.005785 -1.000000
v 1.000002 1.005785 -1.000000
v 1.000002 2.005785 0.000000
v 1.000002 2.005784 1.000000
v 1.000002 2.005785 -1.000000
v 0.000002 2.005785 0.000000
v 0.000002 2.005784 1.000000
v 0.000002 2.005785 -1.000000
v -0.999998 2.005785 0.000000
v -0.999998 2.005784 1.000000
v -0.999998 2.005785 -1.000000
v -0.999998 1.005784 0.000000
v -0.999998 1.005784 1.000000
v -0.999998 1.005785 -1.000000
v -0.999998 0.005784 0.000000
v -0.999998 0.005784 1.000000
v -0.999998 0.005785 -1.000000
vt 0.000049 0.187549
vt 0.062451 0.187549
vt 0.062451 0.249951
vt 0.000049 0.249951
vt 0.000049 0.187549
vt 0.062451 0.187549
vt 0.062451 0.249951
vt 0.000049 0.249951
vt 0.000049 0.312549
vt 0.062451 0.312549
vt 0.062451 0.374951
vt 0.000049 0.374951
vt 0.000049 0.312549
vt 0.062451 0.312549
vt 0.062451 0.374951
vt 0.000049 0.374951
vt 0.062549 0.375049
vt 0.124951 0.375049
vt 0.124951 0.437451
vt 0.062549 0.437451
vt 0.124951 0.375049
vt 0.124951 0.437451
vt 0.062549 0.437451
vt 0.062549 0.500049
vt 0.124951 0.500049
vt 0.124951 0.562451
vt 0.062549 0.562451
vt 0.062549 0.500049
vt 0.124951 0.500049
vt 0.124951 0.562451
vt 0.062549 0.562451
vt 0.000049 0.312549
vt 0.062451 0.312549
vt 0.062451 0.374951
vt 0.000049 0.374951
vt 0.000049 0.312549
vt 0.062451 0.312549
vt 0.062451 0.374951
vt 0.000049 0.374951
vt 0.000049 0.187549
vt 0.062451 0.187549
vt 0.062451 0.249951
vt 0.000049 0.249951
vt 0.000049 0.187549
vt 0.062451 0.187549
vt 0.062451 0.249951
vt 0.000049 0.249951
vn 1.0000 0.0000 0.0000
vn 0.0000 1.0000 0.0000
vn -1.0000 -0.0000 0.0000
usemtl House_01_Test.066
s 1
f 1/1/1 2/2/1 3/3/1 4/4/1
f 2/5/1 5/6/1 6/7/1 3/8/1
f 4/9/1 3/10/1 7/11/1 8/12/1
f 3/13/1 6/14/1 9/15/1 7/16/1
f 8/17/2 7/18/2 10/19/2 11/20/2
f 7/11/2 9/21/2 12/22/2 10/23/2
f 11/24/2 10/25/2 13/26/2 14/27/2
f 10/28/2 12/29/2 15/30/2 13/31/2
f 16/32/3 17/33/3 14/34/3 13/35/3
f 18/36/3 16/37/3 13/38/3 15/39/3
f 19/40/3 20/41/3 17/42/3 16/43/3
f 21/44/3 19/45/3 16/46/3 18/47/3
