# Blender v2.93.5 OBJ File: ''
# www.blender.org
mtllib SM_ModularPlatform_06.mtl
o Door_01.067_Cube.092
v -0.500000 1.005732 0.000001
v -0.500000 1.005732 1.000001
v -0.500000 2.005732 1.000001
v -0.500000 2.005732 0.000001
v -0.500000 0.005732 -0.999999
v -0.500000 0.005732 0.000001
v -0.500000 1.005732 -0.999999
v -0.500000 0.005732 1.000001
v -0.500000 3.005732 1.000001
v -0.500000 3.005732 0.000001
v -0.500000 2.005732 -0.999999
v -0.500000 3.005732 -0.999999
v 0.500000 0.005732 1.000001
v 0.500000 0.005732 0.000001
v 0.500000 1.005732 0.000001
v 0.500000 1.005732 1.000001
v 0.500000 2.005732 0.000001
v 0.500000 2.005732 1.000001
v 0.500000 1.005732 -0.999999
v 0.500000 2.005732 -0.999999
v 0.500000 3.005732 0.000001
v 0.500000 3.005732 1.000001
v 0.500000 0.005732 -0.999999
v 0.500000 3.005732 -0.999999
vt 0.000049 0.250049
vt 0.062451 0.250049
vt 0.062451 0.312451
vt 0.000049 0.312451
vt 0.000049 0.187549
vt 0.062451 0.187549
vt 0.062451 0.249951
vt 0.000049 0.249951
vt 0.000049 0.187549
vt 0.062451 0.187549
vt 0.062451 0.374951
vt 0.000049 0.374951
vt 0.062451 0.312451
vt 0.000049 0.312451
vt 0.062451 0.374951
vt 0.000049 0.374951
vt 0.000049 0.187549
vt 0.062451 0.187549
vt 0.062451 0.249951
vt 0.000049 0.249951
vt 0.062451 0.312451
vt 0.000049 0.312451
vt 0.000049 0.250049
vt 0.062451 0.250049
vt 0.062451 0.312451
vt 0.000049 0.312451
vt 0.062451 0.374951
vt 0.000049 0.374951
vt 0.000049 0.187549
vt 0.062451 0.187549
vt 0.062451 0.374951
vt 0.000049 0.374951
vt 0.500049 0.187549
vt 0.562451 0.187549
vt 0.562451 0.249951
vt 0.500049 0.249951
vt 0.500049 0.187549
vt 0.562451 0.187549
vt 0.562451 0.249951
vt 0.500049 0.249951
vn -1.0000 0.0000 0.0000
vn 1.0000 0.0000 0.0000
vn 0.0000 1.0000 0.0000
usemtl House_01_Test.068
s 1
f 1/1/1 2/2/1 3/3/1 4/4/1
f 5/5/1 6/6/1 1/7/1 7/8/1
f 6/9/1 8/10/1 2/2/1 1/1/1
f 4/4/1 3/3/1 9/11/1 10/12/1
f 7/8/1 1/7/1 4/13/1 11/14/1
f 11/14/1 4/13/1 10/15/1 12/16/1
f 13/17/2 14/18/2 15/19/2 16/20/2
f 16/20/2 15/19/2 17/21/2 18/22/2
f 15/23/2 19/24/2 20/25/2 17/26/2
f 18/22/2 17/21/2 21/27/2 22/28/2
f 14/29/2 23/30/2 19/24/2 15/23/2
f 17/26/2 20/25/2 24/31/2 21/32/2
f 21/33/3 10/34/3 9/35/3 22/36/3
f 24/37/3 12/38/3 10/39/3 21/40/3
