# Blender v2.93.5 OBJ File: ''
# www.blender.org
mtllib SM_ModularWall_17.mtl
o Door_01.086_Cube.112
v 0.000000 0.000971 0.500000
v 0.000000 0.000971 -0.500000
v 0.000000 1.000971 -0.500000
v 0.000000 1.000971 0.500000
v 0.000000 2.000971 -0.500000
v 0.000000 2.000971 0.500000
v 0.000000 3.000971 -0.500000
v 0.000000 3.000971 0.500000
vt 0.000000 0.250000
vt 0.062500 0.250000
vt 0.062500 0.312500
vt 0.000000 0.312500
vt 0.000049 0.250049
vt 0.062451 0.250049
vt 0.062451 0.312451
vt 0.000049 0.312451
vt 0.000000 0.250000
vt 0.062500 0.250000
vt 0.062500 0.312500
vt 0.000000 0.312500
vn 1.0000 0.0000 0.0000
usemtl House_01_Test.135
s 1
f 1/1/1 2/2/1 3/3/1 4/4/1
f 4/5/1 3/6/1 5/7/1 6/8/1
f 6/9/1 5/10/1 7/11/1 8/12/1
