# Blender v2.93.5 OBJ File: ''
# www.blender.org
mtllib SM_ModularPlatform_01.mtl
o Door_01.064_Cube.088
v 0.500000 0.005567 1.000001
v 0.500000 0.005567 0.000001
v 0.500000 1.005567 0.000001
v 0.500000 1.005567 1.000001
v 0.500000 2.005567 0.000001
v 0.500000 2.005567 1.000001
v 0.500000 1.005567 -0.999999
v 0.500000 2.005567 -0.999999
v 0.500000 0.005567 -0.999999
v -0.500000 0.005567 1.000001
v -0.500000 1.005567 1.000001
v -0.500000 2.005567 1.000001
v -0.500000 1.005567 0.000001
v -0.500000 2.005567 0.000001
v -0.500000 1.005567 -0.999999
v -0.500000 2.005567 -0.999999
v -0.500000 0.005567 -0.999999
v -0.500000 0.005567 0.000001
vt 0.000049 0.187549
vt 0.062451 0.187549
vt 0.062451 0.249951
vt 0.000049 0.249951
vt 0.000049 0.312549
vt 0.062451 0.312549
vt 0.062451 0.374951
vt 0.000049 0.374951
vt 0.000049 0.312549
vt 0.062451 0.312549
vt 0.062451 0.374951
vt 0.000049 0.374951
vt 0.000049 0.187549
vt 0.062451 0.187549
vt 0.062451 0.249951
vt 0.000049 0.249951
vt 0.000049 0.187549
vt 0.062451 0.187549
vt 0.062451 0.249951
vt 0.000049 0.249951
vt 0.000049 0.312549
vt 0.062451 0.312549
vt 0.062451 0.374951
vt 0.000049 0.374951
vt 0.000049 0.312549
vt 0.062451 0.312549
vt 0.062451 0.374951
vt 0.000049 0.374951
vt 0.000049 0.312549
vt 0.062451 0.312549
vt 0.062451 0.374951
vt 0.000049 0.374951
vt 0.000049 0.187549
vt 0.062451 0.187549
vt 0.062451 0.249951
vt 0.000049 0.249951
vt 0.000049 0.187549
vt 0.062451 0.187549
vt 0.062451 0.249951
vt 0.000049 0.249951
vt 0.500049 0.250049
vt 0.562451 0.250049
vt 0.562451 0.312451
vt 0.500049 0.312451
vt 0.500049 0.187549
vt 0.562451 0.187549
vn 1.0000 -0.0000 0.0000
vn 0.0000 -0.0000 1.0000
vn -1.0000 -0.0000 0.0000
vn 0.0000 1.0000 0.0000
usemtl House_01_Test.063
s 1
f 1/1/1 2/2/1 3/3/1 4/4/1
f 4/5/1 3/6/1 5/7/1 6/8/1
f 3/9/1 7/10/1 8/11/1 5/12/1
f 2/13/1 9/14/1 7/15/1 3/16/1
f 10/17/2 1/18/2 4/19/2 11/20/2
f 11/21/2 4/22/2 6/23/2 12/24/2
f 13/25/3 11/26/3 12/27/3 14/28/3
f 15/29/3 13/30/3 14/31/3 16/32/3
f 17/33/3 18/34/3 13/35/3 15/36/3
f 18/37/3 10/38/3 11/39/3 13/40/3
f 5/41/4 14/42/4 12/43/4 6/44/4
f 8/45/4 16/46/4 14/42/4 5/41/4
