# Blender v2.93.5 OBJ File: ''
# www.blender.org
mtllib SM_ModularPlatform_02.mtl
o Door_01.065_Cube.089
v -0.500001 0.008424 -0.000000
v -0.500001 0.008424 1.000000
v -0.500001 1.008424 1.000000
v -0.500001 1.008424 0.000000
v -0.500001 0.008424 -1.000000
v -0.500001 1.008424 -1.000000
v -0.500001 2.008424 0.000000
v -0.500001 2.008424 -1.000000
v -0.500001 2.008424 1.000000
v 0.499999 2.008424 0.000000
v 0.499999 2.008424 1.000000
v 0.499999 2.008424 -1.000000
v 0.499999 1.008424 1.000000
v 0.499999 1.008424 0.000000
v 0.499999 1.008424 -1.000000
v 0.499999 0.008424 1.000000
v 0.499999 0.008424 -0.000000
v 0.499999 0.008424 -1.000000
vt 0.000049 0.187549
vt 0.062451 0.187549
vt 0.062451 0.249951
vt 0.000049 0.249951
vt 0.000049 0.187549
vt 0.062451 0.187549
vt 0.062451 0.249951
vt 0.000049 0.249951
vt 0.000049 0.312549
vt 0.062451 0.312549
vt 0.062451 0.374951
vt 0.000049 0.374951
vt 0.000049 0.312549
vt 0.062451 0.312549
vt 0.062451 0.374951
vt 0.000049 0.374951
vt 0.500049 0.187549
vt 0.562451 0.187549
vt 0.562451 0.249951
vt 0.500049 0.249951
vt 0.500049 0.187549
vt 0.562451 0.187549
vt 0.562451 0.249951
vt 0.500049 0.249951
vt 0.000049 0.312549
vt 0.062451 0.312549
vt 0.062451 0.374951
vt 0.000049 0.374951
vt 0.000049 0.312549
vt 0.062451 0.312549
vt 0.062451 0.374951
vt 0.000049 0.374951
vt 0.000049 0.187549
vt 0.062451 0.187549
vt 0.062451 0.249951
vt 0.000049 0.249951
vt 0.000049 0.187549
vt 0.062451 0.187549
vt 0.062451 0.249951
vt 0.000049 0.249951
vn -1.0000 -0.0000 0.0000
vn 0.0000 1.0000 0.0000
vn 1.0000 0.0000 0.0000
usemtl House_01_Test.064
s 1
f 1/1/1 2/2/1 3/3/1 4/4/1
f 5/5/1 1/6/1 4/7/1 6/8/1
f 6/9/1 4/10/1 7/11/1 8/12/1
f 4/13/1 3/14/1 9/15/1 7/16/1
f 10/17/2 7/18/2 9/19/2 11/20/2
f 12/21/2 8/22/2 7/23/2 10/24/2
f 13/25/3 14/26/3 10/27/3 11/28/3
f 14/29/3 15/30/3 12/31/3 10/32/3
f 16/33/3 17/34/3 14/35/3 13/36/3
f 17/37/3 18/38/3 15/39/3 14/40/3
