# Blender v2.93.5 OBJ File: ''
# www.blender.org
mtllib SM_ModularPlatform_03.mtl
o Door_01.071_Cube.096
v -0.999998 0.008597 0.994580
v 0.000002 0.008597 0.994580
v 0.000002 1.008597 0.994580
v -0.999998 1.008597 0.994580
v 0.000002 2.008597 0.994580
v -0.999998 2.008597 0.994580
v 1.000002 0.008597 0.994580
v 1.000002 1.008597 0.994580
v 1.000002 2.008597 0.994580
v 1.000002 1.008597 -0.005420
v 1.000002 2.008597 -0.005420
v 1.000002 0.008597 -0.005420
v 1.000002 1.008598 -1.005420
v 1.000002 2.008598 -1.005420
v 1.000002 0.008598 -1.005420
v -0.999998 0.008597 -0.005420
v -0.999998 1.008597 -0.005420
v -0.999998 0.008598 -1.005420
v -0.999998 1.008598 -1.005420
v -0.999998 2.008597 -0.005420
v -0.999998 2.008598 -1.005420
v 0.000002 2.008597 -0.005420
v 0.000002 2.008598 -1.005420
vt 0.000049 0.187549
vt 0.062451 0.187549
vt 0.062451 0.249951
vt 0.000049 0.249951
vt 0.000049 0.312549
vt 0.062451 0.312549
vt 0.062451 0.374951
vt 0.000049 0.374951
vt 0.000049 0.187549
vt 0.062451 0.187549
vt 0.062451 0.249951
vt 0.000049 0.249951
vt 0.000049 0.312549
vt 0.062451 0.312549
vt 0.062451 0.374951
vt 0.000049 0.374951
vt 0.000049 0.312549
vt 0.062451 0.312549
vt 0.062451 0.374951
vt 0.000049 0.374951
vt 0.000049 0.187549
vt 0.062451 0.187549
vt 0.062451 0.249951
vt 0.000049 0.249951
vt 0.000049 0.312549
vt 0.062451 0.312549
vt 0.062451 0.374951
vt 0.000049 0.374951
vt 0.000049 0.187549
vt 0.062451 0.187549
vt 0.062451 0.249951
vt 0.000049 0.249951
vt 0.000049 0.187549
vt 0.062451 0.187549
vt 0.062451 0.249951
vt 0.000049 0.249951
vt 0.000049 0.187549
vt 0.062451 0.187549
vt 0.062451 0.249951
vt 0.000049 0.249951
vt 0.000049 0.312549
vt 0.062451 0.312549
vt 0.062451 0.374951
vt 0.000049 0.374951
vt 0.000049 0.312549
vt 0.062451 0.312549
vt 0.062451 0.374951
vt 0.000049 0.374951
vt 0.062451 0.437451
vt 0.000049 0.437451
vt 0.062451 0.499951
vt 0.000049 0.499951
vt 0.125049 0.375049
vt 0.187451 0.375049
vt 0.187451 0.437451
vt 0.125049 0.437451
vt 0.187451 0.499951
vt 0.125049 0.499951
vn 0.0000 -0.0000 1.0000
vn 1.0000 0.0000 0.0000
vn -1.0000 -0.0000 0.0000
vn 0.0000 1.0000 0.0000
usemtl House_01_Test.065
s 1
f 1/1/1 2/2/1 3/3/1 4/4/1
f 4/5/1 3/6/1 5/7/1 6/8/1
f 2/9/1 7/10/1 8/11/1 3/12/1
f 3/13/1 8/14/1 9/15/1 5/16/1
f 8/17/2 10/18/2 11/19/2 9/20/2
f 7/21/2 12/22/2 10/23/2 8/24/2
f 10/25/2 13/26/2 14/27/2 11/28/2
f 12/29/2 15/30/2 13/31/2 10/32/2
f 16/33/3 1/34/3 4/35/3 17/36/3
f 18/37/3 16/38/3 17/39/3 19/40/3
f 19/41/3 17/42/3 20/43/3 21/44/3
f 17/45/3 4/46/3 6/47/3 20/48/3
f 6/8/4 5/7/4 22/49/4 20/50/4
f 20/50/4 22/49/4 23/51/4 21/52/4
f 5/53/4 9/54/4 11/55/4 22/56/4
f 22/56/4 11/55/4 14/57/4 23/58/4
