# Blender v2.93.5 OBJ File: ''
# www.blender.org
mtllib SM_ModularPlatform_07.mtl
o Door_01.069_Cube.094
v 1.000000 1.012859 0.995224
v 1.000000 1.012859 -0.004776
v 1.000000 2.012859 -0.004776
v 1.000000 2.012859 0.995224
v 1.000000 3.012859 -0.004776
v 1.000000 3.012859 0.995224
v 1.000000 0.012859 0.995224
v 1.000000 0.012859 -0.004776
v 1.000000 0.012859 -1.004776
v 1.000000 1.012859 -1.004776
v 1.000000 2.012859 -1.004776
v 1.000000 3.012859 -1.004776
v -0.000000 1.012859 0.995224
v -0.000000 2.012859 0.995224
v -1.000000 0.012859 0.995224
v -0.000000 0.012859 0.995224
v -1.000000 1.012859 0.995224
v -0.000000 3.012859 0.995224
v -1.000000 2.012859 0.995224
v -1.000000 0.012859 -0.004776
v -1.000000 1.012859 -0.004776
v -1.000000 3.012859 0.995224
v -1.000000 2.012859 -0.004776
v -1.000000 3.012859 -0.004776
v -1.000000 0.012859 -1.004776
v -1.000000 1.012859 -1.004776
v -1.000000 2.012859 -1.004776
v -1.000000 3.012859 -1.004776
v -0.000000 3.012859 -0.004776
v -0.000000 3.012859 -1.004776
vt 0.000049 0.250049
vt 0.062451 0.250049
vt 0.062451 0.312451
vt 0.000049 0.312451
vt 0.062451 0.374951
vt 0.000049 0.374951
vt 0.000049 0.187549
vt 0.062451 0.187549
vt 0.000049 0.187549
vt 0.062451 0.187549
vt 0.062451 0.249951
vt 0.000049 0.249951
vt 0.062451 0.312451
vt 0.000049 0.312451
vt 0.062451 0.374951
vt 0.000049 0.374951
vt 0.000049 0.250049
vt 0.062451 0.250049
vt 0.062451 0.312451
vt 0.000049 0.312451
vt 0.000049 0.187549
vt 0.062451 0.187549
vt 0.062451 0.249951
vt 0.000049 0.249951
vt 0.062451 0.374951
vt 0.000049 0.374951
vt 0.000049 0.187549
vt 0.062451 0.187549
vt 0.062451 0.312451
vt 0.000049 0.312451
vt 0.000049 0.187549
vt 0.062451 0.187549
vt 0.062451 0.249951
vt 0.000049 0.249951
vt 0.062451 0.374951
vt 0.000049 0.374951
vt 0.062451 0.312451
vt 0.000049 0.312451
vt 0.062451 0.374951
vt 0.000049 0.374951
vt 0.000049 0.187549
vt 0.062451 0.187549
vt 0.062451 0.249951
vt 0.000049 0.249951
vt 0.062451 0.312451
vt 0.000049 0.312451
vt 0.062451 0.374951
vt 0.000049 0.374951
vt 0.062451 0.562451
vt 0.000049 0.562451
vt 0.000049 0.500049
vt 0.062451 0.500049
vt 0.124951 0.562451
vt 0.124951 0.500049
vt 0.062451 0.437451
vt 0.000049 0.437451
vt 0.124951 0.375049
vt 0.124951 0.437451
vn 1.0000 0.0000 0.0000
vn 0.0000 -0.0000 1.0000
vn -1.0000 0.0000 0.0000
vn 0.0000 1.0000 0.0000
usemtl House_01_Test.069
s 1
f 1/1/1 2/2/1 3/3/1 4/4/1
f 4/4/1 3/3/1 5/5/1 6/6/1
f 7/7/1 8/8/1 2/2/1 1/1/1
f 8/9/1 9/10/1 10/11/1 2/12/1
f 2/12/1 10/11/1 11/13/1 3/14/1
f 3/14/1 11/13/1 12/15/1 5/16/1
f 13/17/2 1/18/2 4/19/2 14/20/2
f 15/21/2 16/22/2 13/23/2 17/24/2
f 14/20/2 4/19/2 6/25/2 18/26/2
f 16/27/2 7/28/2 1/18/2 13/17/2
f 17/24/2 13/23/2 14/29/2 19/30/2
f 20/31/3 15/32/3 17/33/3 21/34/3
f 19/30/2 14/29/2 18/35/2 22/36/2
f 21/34/3 17/33/3 19/37/3 23/38/3
f 23/38/3 19/37/3 22/39/3 24/40/3
f 25/41/3 20/42/3 21/43/3 26/44/3
f 26/44/3 21/43/3 23/45/3 27/46/3
f 27/46/3 23/45/3 24/47/3 28/48/3
f 24/49/4 22/50/4 18/51/4 29/52/4
f 28/53/4 24/49/4 29/52/4 30/54/4
f 6/6/4 5/5/4 29/55/4 18/56/4
f 5/5/4 12/57/4 30/58/4 29/55/4
