# Blender v2.93.5 OBJ File: ''
# www.blender.org
mtllib SM_ModularWall_02.mtl
o Door_01.036_Cube.011
v 0.000000 0.004020 0.500000
v 0.000000 0.004020 -0.500000
v 0.000000 1.004020 -0.500000
v 0.000000 1.004020 0.500000
v 0.000000 2.004020 -0.500000
v 0.000000 2.004020 0.500000
vt 0.000049 0.187549
vt 0.062451 0.187549
vt 0.062451 0.249951
vt 0.000049 0.249951
vt 0.000049 0.312549
vt 0.062451 0.312549
vt 0.062451 0.374951
vt 0.000049 0.374951
vn 1.0000 -0.0000 0.0000
usemtl House_01_Test.116
s 1
f 1/1/1 2/2/1 3/3/1 4/4/1
f 4/5/1 3/6/1 5/7/1 6/8/1
