# Blender v2.93.5 OBJ File: ''
# www.blender.org
mtllib SM_ModularTile_FloorLrg_14.mtl
o Door_01.046_Cube.043
v 1.000000 -0.000000 1.000000
v 1.000000 0.000000 0.000000
v 0.000000 0.000000 0.000000
v 0.000000 -0.000000 1.000000
v -1.000000 0.000000 0.000000
v -1.000000 -0.000000 1.000000
v 0.000000 0.000000 -1.000000
v -1.000000 0.000000 -1.000000
v 1.000000 0.000000 -1.000000
vt 0.062549 0.375049
vt 0.124951 0.375049
vt 0.124951 0.437451
vt 0.062549 0.437451
vt 0.062549 0.500049
vt 0.124951 0.500049
vt 0.124951 0.562451
vt 0.062549 0.562451
vt 0.062549 0.500049
vt 0.124951 0.500049
vt 0.124951 0.562451
vt 0.062549 0.562451
vt 0.062549 0.375049
vt 0.124951 0.375049
vt 0.124951 0.437451
vt 0.062549 0.437451
vn 0.0000 1.0000 0.0000
usemtl House_01_Test.086
s 1
f 1/1/1 2/2/1 3/3/1 4/4/1
f 4/5/1 3/6/1 5/7/1 6/8/1
f 3/9/1 7/10/1 8/11/1 5/12/1
f 2/13/1 9/14/1 7/15/1 3/16/1
