# Blender v2.93.5 OBJ File: ''
# www.blender.org
mtllib SM_ModularWall_13.mtl
o Door_01.034_Cube.009
v -0.001142 0.005733 -0.002330
v -0.001142 0.005733 -1.002330
v -0.001142 1.005733 -1.002329
v -0.001142 1.005733 -0.002329
v -0.001142 2.005733 -1.002329
v -0.001142 2.005733 -0.002329
v -0.001142 3.005733 -1.002329
v -0.001142 3.005733 -0.002329
v -1.001142 0.005733 -0.002330
v -1.001142 1.005733 -0.002329
v -1.001142 2.005733 -0.002329
v -1.001142 3.005733 -0.002329
vt 0.000049 0.187549
vt 0.062451 0.187549
vt 0.062451 0.249951
vt 0.000049 0.249951
vt 0.062451 0.312451
vt 0.000049 0.312451
vt 0.062451 0.374951
vt 0.000049 0.374951
vt 0.000049 0.187549
vt 0.062451 0.187549
vt 0.062451 0.249951
vt 0.000049 0.249951
vt 0.062451 0.312451
vt 0.000049 0.312451
vt 0.062451 0.374951
vt 0.000049 0.374951
vn 1.0000 -0.0000 0.0000
vn 0.0000 -0.0000 1.0000
usemtl House_01_Test.131
s 1
f 1/1/1 2/2/1 3/3/1 4/4/1
f 4/4/1 3/3/1 5/5/1 6/6/1
f 6/6/1 5/5/1 7/7/1 8/8/1
f 9/9/2 1/10/2 4/11/2 10/12/2
f 10/12/2 4/11/2 6/13/2 11/14/2
f 11/14/2 6/13/2 8/15/2 12/16/2
