# Blender v2.93.5 OBJ File: ''
# www.blender.org
mtllib SM_ModularWall_09.mtl
o Door_01.088_Cube.114
v -0.010522 1.001853 1.001007
v -0.010522 1.001854 0.001007
v -0.010522 2.001853 0.001007
v -0.010522 2.001853 1.001007
v -0.010522 0.001853 1.001006
v -0.010522 0.001854 0.001006
v -1.010522 0.001854 0.001006
v -1.010522 1.001854 0.001007
v -1.010522 2.001853 0.001007
vt 0.000000 0.250000
vt 0.062500 0.250000
vt 0.062500 0.312500
vt 0.000000 0.312500
vt 0.000000 0.250000
vt 0.062500 0.250000
vt 0.062500 0.312500
vt 0.000000 0.312500
vt -0.000000 0.250000
vt 0.062500 0.250000
vt 0.062500 0.312500
vt -0.000000 0.312500
vt 0.000000 0.250000
vt 0.062500 0.250000
vt 0.062500 0.312500
vt 0.000000 0.312500
vn 1.0000 0.0000 0.0000
vn 0.0000 0.0000 -1.0000
usemtl House_01_Test.125
s 1
f 1/1/1 2/2/1 3/3/1 4/4/1
f 5/5/1 6/6/1 2/7/1 1/8/1
f 6/9/2 7/10/2 8/11/2 2/12/2
f 2/13/2 8/14/2 9/15/2 3/16/2
