# Blender v2.93.5 OBJ File: ''
# www.blender.org
mtllib SM_ModularTile_FloorLrg_11.mtl
o Door_01.044_Cube.031
v 1.000000 -0.000000 0.000002
v 1.000000 0.000000 -0.999998
v 0.000000 0.000000 -0.999998
v 0.000000 -0.000000 0.000002
v 1.000000 -0.000000 1.000002
v 0.000000 -0.000000 1.000002
v -1.000000 0.000000 -0.999998
v -1.000000 -0.000000 0.000002
v -1.000000 -0.000000 1.000002
vt 0.125049 0.375049
vt 0.187451 0.375049
vt 0.187451 0.437451
vt 0.125049 0.437451
vt 0.062549 0.375049
vt 0.062549 0.437451
vt 0.187451 0.499951
vt 0.125049 0.499951
vt 0.250049 0.437549
vt 0.312451 0.437549
vt 0.312451 0.499951
vt 0.250049 0.499951
vn 0.0000 1.0000 0.0000
usemtl House_01_Test.083
s 1
f 1/1/1 2/2/1 3/3/1 4/4/1
f 5/5/1 1/1/1 4/4/1 6/6/1
f 4/4/1 3/3/1 7/7/1 8/8/1
f 6/9/1 4/10/1 8/11/1 9/12/1
