# Blender v2.93.5 OBJ File: ''
# www.blender.org
mtllib SM_ModularTile_FloorLrg_04.mtl
o Door_01.052_Cube.066
v 1.000000 -0.000000 1.000002
v 1.000000 -0.000000 0.000002
v 0.000000 -0.000000 0.000002
v 0.000000 -0.000000 1.000002
v 1.000000 0.000000 -0.999998
v 0.000000 0.000000 -0.999998
v -1.000000 -0.000000 0.000002
v -1.000000 -0.000000 1.000002
v -1.000000 0.000000 -0.999998
vt 0.000049 0.437549
vt 0.062451 0.437549
vt 0.062451 0.499951
vt 0.000049 0.499951
vt 0.124951 0.437549
vt 0.124951 0.499951
vt 0.000049 0.437549
vt 0.062451 0.437549
vt 0.062451 0.499951
vt 0.000049 0.499951
vt 0.124951 0.437549
vt 0.124951 0.499951
vn 0.0000 1.0000 0.0000
usemtl House_01_Test.076
s 1
f 1/1/1 2/2/1 3/3/1 4/4/1
f 2/2/1 5/5/1 6/6/1 3/3/1
f 4/7/1 3/8/1 7/9/1 8/10/1
f 3/8/1 6/11/1 9/12/1 7/9/1
