# Blender v2.93.5 OBJ File: ''
# www.blender.org
mtllib SM_ModularWall_06.mtl
o Door_01.038_Cube.014
v -0.005626 1.002710 2.002772
v -0.005626 1.002710 1.002771
v -0.005626 2.002710 1.002772
v -0.005626 2.002710 2.002772
v -0.005626 1.002710 0.002772
v -0.005626 2.002710 0.002772
v -0.005626 0.002710 2.002771
v -0.005626 0.002710 1.002771
v -0.005626 0.002710 0.002771
v -1.005625 0.002710 0.002771
v -1.005625 1.002710 0.002772
v -2.005624 0.002710 0.002771
v -2.005624 1.002710 0.002772
v -2.005624 2.002710 0.002772
v -1.005625 2.002710 0.002772
vt 0.000049 0.312549
vt 0.062451 0.312549
vt 0.062451 0.374951
vt 0.000049 0.374951
vt 0.000049 0.312549
vt 0.062451 0.312549
vt 0.062451 0.374951
vt 0.000049 0.374951
vt 0.000049 0.187549
vt 0.062451 0.187549
vt 0.062451 0.249951
vt 0.000049 0.249951
vt 0.000049 0.187549
vt 0.062451 0.187549
vt 0.062451 0.249951
vt 0.000049 0.249951
vt 0.000049 0.187549
vt 0.062451 0.187549
vt 0.062451 0.249951
vt 0.000049 0.249951
vt 0.000049 0.187549
vt 0.062451 0.187549
vt 0.062451 0.249951
vt 0.000049 0.249951
vt 0.000049 0.312549
vt 0.062451 0.312549
vt 0.062451 0.374951
vt 0.000049 0.374951
vt 0.000049 0.312549
vt 0.062451 0.312549
vt 0.062451 0.374951
vt 0.000049 0.374951
vn 1.0000 -0.0000 0.0000
vn 0.0000 0.0000 -1.0000
usemtl House_01_Test.122
s 1
f 1/1/1 2/2/1 3/3/1 4/4/1
f 2/5/1 5/6/1 6/7/1 3/8/1
f 7/9/1 8/10/1 2/11/1 1/12/1
f 8/13/1 9/14/1 5/15/1 2/16/1
f 9/17/2 10/18/2 11/19/2 5/20/2
f 10/21/2 12/22/2 13/23/2 11/24/2
f 11/25/2 13/26/2 14/27/2 15/28/2
f 5/29/2 11/30/2 15/31/2 6/32/2
