# Blender v2.93.5 OBJ File: ''
# www.blender.org
mtllib SM_ModularWall_16.mtl
o Door_01.087_Cube.113
v -0.002330 0.001566 -0.000544
v -0.002330 0.001567 -1.000544
v -0.002330 1.001567 -1.000544
v -0.002330 1.001566 -0.000544
v -0.002330 2.001567 -1.000544
v -0.002330 2.001566 -0.000544
v -0.002330 3.001567 -1.000544
v -0.002330 3.001566 -0.000544
v -1.002330 0.001566 -0.000544
v -1.002330 1.001566 -0.000544
v -1.002330 2.001566 -0.000544
v -1.002330 3.001566 -0.000544
vt 0.000000 0.250000
vt 0.062500 0.250000
vt 0.062500 0.312500
vt 0.000000 0.312500
vt 0.000049 0.250049
vt 0.062451 0.250049
vt 0.062451 0.312451
vt 0.000049 0.312451
vt 0.000000 0.250000
vt 0.062500 0.250000
vt 0.062500 0.312500
vt 0.000000 0.312500
vt -0.000000 0.250000
vt 0.062500 0.250000
vt 0.062500 0.312500
vt -0.000000 0.312500
vt 0.000049 0.250049
vt 0.062451 0.250049
vt 0.062451 0.312451
vt 0.000049 0.312451
vt 0.000000 0.250000
vt 0.062500 0.250000
vt 0.062500 0.312500
vt 0.000000 0.312500
vn 1.0000 0.0000 0.0000
vn 0.0000 -0.0000 1.0000
usemtl House_01_Test.134
s 1
f 1/1/1 2/2/1 3/3/1 4/4/1
f 4/5/1 3/6/1 5/7/1 6/8/1
f 6/9/1 5/10/1 7/11/1 8/12/1
f 9/13/2 1/14/2 4/15/2 10/16/2
f 10/17/2 4/18/2 6/19/2 11/20/2
f 11/21/2 6/22/2 8/23/2 12/24/2
